<svg xmlns="http://www.w3.org/2000/svg" viewBox="0 0 120 120"><style>.st0{display:none}.st1{display:inline}.st1,.st2{fill:#fc14a2}</style><g id="iconmonstr" class="st0"><path id="log-out-3" class="st1" d="M41 45.75v-19L79 60 41 93.25v-19H3v-28.5h38zM69.5 12.5a47.225 47.225 0 0 0-23.328 6.151l1.083.949 6.626 5.798C58.652 23.234 63.929 22 69.5 22c20.953 0 38 17.047 38 38s-17.047 38-38 38c-5.571 0-10.848-1.234-15.618-3.398l-6.626 5.798-1.083.949a47.222 47.222 0 0 0 23.328 6.151c26.232 0 47.5-21.266 47.5-47.5S95.732 12.5 69.5 12.5z"/></g><g id="Layer_2" class="st0"><path class="st1" d="M36.609 23.12C49.84 23.126 56.945 37.395 60 43.696 63.067 37.37 70.096 23.16 83.415 23.16c8.419 0 17.481 5.353 17.481 17.103 0 14.078-19.402 32.108-40.896 53.167-21.502-21.065-40.896-39.091-40.896-53.167 0-10.943 8.035-17.147 17.505-17.143zM35.566 13c-13.603-.002-26.839 9.344-26.839 26.456 0 19.916 23.8 40.28 51.273 67.544 27.472-27.264 51.273-47.628 51.273-67.544 0-17.139-13.231-26.414-26.809-26.414-9.418 0-18.998 4.454-24.464 13.834C54.509 17.452 44.949 13 35.566 13z"/></g><g id="Layer_3" class="st0"><path id="infinity-5" class="st1" d="M88.667 63.444v23.889H64.778l7.68-7.682c-16.265-13.493-26.96-40.095-43.859-40.095-10.096 0-16.619 7.537-16.619 19.111s6.523 19.111 16.619 19.111c7.951 0 13.666-5.102 19.181-11.427l5.944 7.456c-7.157 7.316-14.571 13.526-25.125 13.526-15.271 0-25.932-11.728-25.932-28.667S13.328 30 28.599 30C51.718 30 63.667 60.81 79.2 72.911l9.467-9.467zM91.391 30c-10.563 0-17.973 6.217-25.134 13.538l5.944 7.458c5.52-6.332 11.235-11.44 19.19-11.44 10.102 0 16.629 7.537 16.629 19.111 0 8.692-3.686 15.105-9.798 17.763v10.027c11.524-2.975 19.111-13.517 19.111-27.789 0-16.94-10.666-28.668-25.942-28.668z"/></g><g id="Layer_4"><path id="wrench-11" class="st2" d="M60 9c-3.752 0-7.404.432-10.924 1.204l1.482 8.39C53.6 17.9 56.75 17.5 60 17.5c23.433 0 42.5 19.065 42.5 42.5a42.246 42.246 0 0 1-4.906 19.764l-5.852-5.85a13.617 13.617 0 0 1-3.951-10.683c.581-7.508-2-15.213-7.736-20.953C74.85 37.077 68.048 34.5 61.237 34.5c-2.565 0-5.13.365-7.612 1.094L69.654 51.62c1.735 8.029-9.903 19.804-18.029 18.029L35.596 53.623a26.988 26.988 0 0 0-1.096 7.618c0 6.808 2.581 13.609 7.778 18.81 5.736 5.742 13.447 8.319 20.951 7.738a13.63 13.63 0 0 1 10.683 3.955l5.848 5.85A42.206 42.206 0 0 1 60 102.5c-23.433 0-42.5-19.065-42.5-42.5 0-8.135 2.341-15.714 6.33-22.174l9.234 9.235 5.748-29.808L9 22.993l8.658 8.658C12.208 39.759 9 49.495 9 60c0 28.166 22.835 51 51 51s51-22.834 51-51S88.165 9 60 9z"/></g></svg>