<svg id="Layer_1" data-name="Layer 1" xmlns="http://www.w3.org/2000/svg" viewBox="0 0 419.91 138.89"><defs><style>.cls-1{fill:#231f20}</style></defs><title>Artboard 1</title><path class="cls-1" d="M70.17 40.29a38.15 38.15 0 0 0 .39-5.41C70.56 19.94 61 7.7 45.83 7.7c-12.24 0-30.27 9.92-30.27 27.17 0 10.95 9.4 7.86 9.4 11.21 0 1.29-1.8 2.71-7 2.71-7 0-13.52-4.77-13.52-13.91 0-18.93 21.64-31.42 42.63-31.42 20.35 0 35.81 13.27 35.81 33.23a47.24 47.24 0 0 1-.39 5.92c-4.64 32.07-30.65 54-55.64 54C9.9 96.57 2.17 90 2.17 82.79c0-9.14 11.59-13.26 20.35-13.65l16.61-47.91c1.29-3.86 5.8-6.57 8.76-6.57 1.67 0 2.71.77 2.71 2.45a4.08 4.08 0 0 1-.26 1.67l-17.9 51.77c5.15 1.93 7.08 5.67 7.08 8.63s-1.93 5-4 5A2 2 0 0 1 33.47 82c0-1.8-1-3.22-3.22-5l-.52 1.54c-1.29 4-6.05 6.57-8.89 6.57-1.55 0-2.71-.77-2.71-2.32a5.06 5.06 0 0 1 .39-1.8L21 73.9c-3 .26-8.37 2.45-8.37 7.6 0 5.8 5.54 9.66 18.68 9.66 18.51 0 34.61-21.38 38.86-50.87zm22.02 36.96a11.33 11.33 0 0 0-.52 2.58c0 1 .39 1.67 1.29 1.67 1.93 0 7-3.35 13.14-10.56a2.65 2.65 0 0 1 2.19-1c.9 0 1.54.38 1.54 1.29s-.51 2.06-1.93 3.61c-7.08 8.37-14.17 12.62-18.68 12.62-4.77 0-7-2.83-7-7.21a16.67 16.67 0 0 1 .78-4.8 100.45 100.45 0 0 1 6.57-15.84 6.06 6.06 0 0 0 .64-1.8c0-.38-.26-.51-.64-.51s-.77.13-1.16.13c-.9 0-1.8-.39-1.8-1.29 0-2.58 6.83-7.34 13.39-7.34 1.8 0 2.58.77 2.58 1.93 0 1.67-1.42 4.38-2.83 7.47a143.36 143.36 0 0 0-7.56 19.05zm15.33-43.15c0 3.48-3.61 7.34-7.86 7.34-3 0-5.28-2.06-5.28-4.76 0-3.74 4-7.34 8-7.34 2.82 0 5.14 1.66 5.14 4.77z"/><path class="cls-1" d="M128.12 96.32c-1.67 6.7-3.22 13.26-4.38 19.45-2.45 12.88-10.3 20.09-17.26 20.09s-9.92-6.83-9.92-13.78c0-15.07 12.49-24.47 23.31-28.46l2.58-10a13.77 13.77 0 0 1-9 3.86c-5.92 0-10.95-5-10.95-11.72 0-11.59 12.11-26.92 27.3-26.92 6.31 0 11.46 2.45 11.46 7.6 0 6.57-5.8 7.86-7.86 7.86-1.8 0-4.64-.52-4.64-2.19s4.12-.77 4.12-4.76c0-2.58-2.58-3.61-5.28-3.61-8.76 0-16 12.24-16 20.87 0 3.61 1.42 7.21 4.77 7.21 2.83 0 7-3.86 9.4-9.53 1.29-3.86 5.41-6.44 8.11-6.44a2.06 2.06 0 0 1 2.36 2.15 5.06 5.06 0 0 1-.39 1.8c-2.06 5.92-4.25 13.65-6.44 21.51 0 0 1.29-.13 2.32-.13 26.4 0 44.43 7.47 65.17 7.47 5.92 0 11.59-3 14.42-6.7a3.53 3.53 0 0 1 2.45-1.54 1.7 1.7 0 0 1 1.67 1.93c0 2.58-2.06 6.83-4.89 9.4-4.12 3.74-11.21 4.9-17 4.9-21.77 0-43.92-10.43-63-10.43a16.4 16.4 0 0 0-2.43.11zm-9.66 3.68c-7.86 4.89-13.14 14.17-13.14 22.8 0 5.54 2.32 7.6 4.25 7.6s3.35-3.09 4.64-9.4c1.29-6.78 2.71-14 4.25-21z"/><path class="cls-1" d="M210.16 34c0 1.54-2.7 4-5.54 4H190.2c-4.38 12.21-10.43 24.57-16.2 32.3.39 7.6 1.93 10.3 4 10.3 3.09 0 7.34-4.12 12.11-9.66a2.94 2.94 0 0 1 2.19-1 1.25 1.25 0 0 1 1.42 1.29c0 .9-.52 2.06-1.8 3.61C184.15 84 178.35 87.43 174 87.43c-4.89 0-7.73-4.77-8.63-10.95-6.57 7.34-13.14 10.95-17.26 10.95-4.77 0-7-2.83-7-7.21a16.65 16.65 0 0 1 .77-4.76c2.45-8.37 7.21-16.23 7.21-17.52a.61.61 0 0 0-.64-.64c-.39 0-.77.26-1.42.26a1.45 1.45 0 0 1-1.54-1.42c0-2.06 6.31-7.34 13.39-7.34 1.8 0 2.45.77 2.45 1.93 0 1.42-1.16 4.12-2.71 7.47A150.68 150.68 0 0 0 151 77.25a10.39 10.39 0 0 0-.39 2.58c0 .9.26 1.67 1.16 1.67 1.93 0 7-3.35 13.14-10.56 0-10.95 2.58-22.54 6.31-33h-1.55c-1.42 0-2.06-.52-2.06-1.29 0-1.68 2.71-4 5.67-4 6.72-16.7 15.89-29.2 20.4-29.2 1.8 0 3 1.93 3 6.18 0 6.05-1.67 14.43-4.51 23.06h16c1.35 0 1.99.51 1.99 1.31zm-43.79.13c0 3.48-3.61 7.34-7.86 7.34-3 0-5.28-2.06-5.28-4.76 0-3.74 3.86-7.34 8-7.34 2.7-.03 5.14 1.77 5.14 4.74zM174 63.34c4.25-7.6 7.47-17.13 9.66-25.37h-5.54a132 132 0 0 0-3.22 15.46c-.54 3.57-.8 7.08-.9 9.91zm12.49-45.85c-1.42 0-4.25 6.57-6.83 15.2h5.28a98 98 0 0 0 2.32-12.24c-.02-2.06-.26-2.96-.79-2.96z"/><path class="cls-1" d="M213.77 87.43c-3.86 0-5.8-2.06-6.18-5.15-3 3.35-6.57 5.15-10.17 5.15-5.92 0-10.95-5-10.95-11.72 0-11.72 12-26.92 27.18-26.92 6.44 0 11.46 2.57 11.46 7.73 0 6.44-5.67 7.73-7.73 7.73-1.8 0-4.63-.52-4.63-2.19s4-.77 4-4.89c0-2.58-2.58-3.48-5.15-3.48-9.27 0-16 12.88-16 20.87 0 3.61 1.42 7.21 4.77 7.21 2.7 0 7.08-3.86 9.27-9.53 1.42-3.86 5.41-6.44 8.11-6.44 1.42 0 2.32.64 2.32 2.06a6.36 6.36 0 0 1-.39 1.93c-.52 1.67-3.22 9.4-3.22 10.56 0 .64.26 1.16 1 1.16 1.93 0 7-3.35 13.14-10.56a2.94 2.94 0 0 1 2.19-1 1.25 1.25 0 0 1 1.42 1.29c0 .9-.51 2.06-1.8 3.61-7.05 8.33-14.14 12.58-18.64 12.58z"/><path class="cls-1" d="M238.75 70.3c.39 7.6 1.93 10.3 3.86 10.3 3 0 7.34-4.12 12.11-9.66a3.17 3.17 0 0 1 2.19-1c.9 0 1.55.38 1.55 1.42q0 1.16-1.93 3.48c-7.73 9.14-13.4 12.62-17.78 12.62-6.31 0-9.14-7.6-9.14-16.23 0-31.43 21.12-67.75 28.85-67.75 1.8 0 3 1.93 3 6.18-.04 15.69-11.89 46.08-22.71 60.64zm0-7.08C247.77 47 252 22.51 252 20.45s-.26-3-.77-3c-2.45 0-9 19.71-11.59 35.94a70.75 70.75 0 0 0-.89 9.82z"/><path class="cls-1" d="M301.73 69.27a12.47 12.47 0 0 1-2.19-.13c-5.67 8.37-11.85 14-16.49 16.74a10 10 0 0 1-5 1.54 3 3 0 0 1-2.7-1.16c-1.16-1.93-1.68-4.12-2.19-7.34-2.58 3.35-4.76 5.67-6.83 7a9.27 9.27 0 0 1-5.33 1.51c-1.29 0-3-.26-3.48-1.16-1.93-3-3-10.43-3-17.9 0-5.41.39-9.79 1.42-13 1.42-4.12 5.67-6.57 8.11-6.57a2.2 2.2 0 0 1 2.45 2.32 5.06 5.06 0 0 1-.39 1.8 49.83 49.83 0 0 0-3 16.23 51.07 51.07 0 0 0 1.29 10.17c.13.64.51 1 .77 1s.39-.13.77-.51a36.85 36.85 0 0 0 6.31-10.17V68a45.31 45.31 0 0 1 1.42-12.62c1.16-3.61 5.41-6.57 8.11-6.57a2.2 2.2 0 0 1 2.45 2.32 5.08 5.08 0 0 1-.39 1.8 49.78 49.78 0 0 0-3 16.23 56.35 56.35 0 0 0 1.29 10.17c.13.64.52 1 .77 1a1.63 1.63 0 0 0 .9-.51 60.4 60.4 0 0 0 10.43-12.62c-3.86-2.45-6.05-7-6.05-12.49 0-9.27 5.54-14 10.95-14 4.25 0 8.11 3.09 8.11 9.27 0 3.86-1.55 8.24-3.73 12.49a8.07 8.07 0 0 0 1.42.13 9.77 9.77 0 0 0 7.21-3.22c1-1.16 2.06-1.93 2.83-1.93s.9.51.9 1.16a3.46 3.46 0 0 1-.52 1.67c-2.93 5.51-8.86 8.99-13.62 8.99zm-7.86-19.32a15 15 0 0 0 4.13 9.79 21.18 21.18 0 0 0 1.42-7.34c0-4.64-1.8-6.7-3.22-6.7-1.68 0-2.33 2.3-2.33 4.25z"/><path class="cls-1" d="M362.9 57a66.13 66.13 0 0 0 9.66.64 3.58 3.58 0 0 1 3.35 3.74 3.43 3.43 0 0 1-1.16 2.62c-1.8 1.8-9.14 8.76-9.14 14.17 0 2.06.9 3 2.32 3 3.22 0 9.27-4.12 14.43-10.17a3.43 3.43 0 0 1 2.19-1c.9 0 1.54.38 1.54 1.29s-.52 2.06-1.93 3.61c-8 9.4-9.82 14.15-19.06 12.62-5.34-.88-8.37-4.38-8.37-8.24 0-3.35 1.8-7.6 7.34-12.49a28.74 28.74 0 0 1-6.57-1.55c-5.8 6.82-13.65 12-20.09 12.11l-.77 1c-5.15 6.05-12 9.15-17.9 9.15-7.86 0-12.24-5.8-12.24-13.14a25.92 25.92 0 0 1 6.57-16.49 27.93 27.93 0 0 1 5.79-5.28 3.35 3.35 0 0 1 1.29-.52 2 2 0 0 1 1.8 2.19 1.84 1.84 0 0 1-.52 1.29 22.78 22.78 0 0 0-5.67 14.81c0 6.57 3.09 11.46 7.73 11.46 2.83 0 6.05-2.06 8.24-5.15-6.18-1.8-10.82-6.57-10.82-13.39 0-7.34 4.25-14.43 11.46-14.43 6.05 0 10.82 6.18 10.82 13.39a20.62 20.62 0 0 1-1.8 8.5c4.25-.52 8.89-3.35 12.37-7.21-4-2.45-5.8-5.28-5.8-9.27 0-8 7-13.52 12.11-13.52a5.51 5.51 0 0 1 5.67 5.8A23.62 23.62 0 0 1 362.9 57zm-37.09 3.35c0 4.64 3.86 8 8.76 9.53a31.64 31.64 0 0 0 .52-4.77c0-4.9-1.55-10-5-10-2.73-.01-4.28 2.18-4.28 5.27zm33-5.15a18.35 18.35 0 0 0 1.16-6.44c0-2.45-.77-3.35-1.55-3.35-1.16 0-2.7 1.8-2.7 4a8.18 8.18 0 0 0 3.06 5.82z"/><path class="cls-1" d="M415.19 80.73a1.16 1.16 0 0 1 1.29 1.27 2.2 2.2 0 0 1-.13.9c-2.06 5.41-9.14 7.34-13.65 7.34-6.05 0-11.59-3.48-13.78-8.5-.9-2.06-1.93-4.38-2.83-7 0 0-10.87 10.44-12 11.07a15.72 15.72 0 0 1-4.09 1.62s-2.7-.52-2.7-1.42a2.42 2.42 0 0 1 .9-1.68l16-15.45c-.9-2.71-2.19-7.73-2.83-10.3a1.22 1.22 0 0 0-1.16-1c-1 0-1.16 1-2.58 1a1.59 1.59 0 0 1-1.72-1.58c0-3 6.18-8.24 9.79-8.24 1.68 0 2.83 1.16 3.35 3.35.64 2.58 1.42 5.92 2.58 9.53l11.59-11.21a6.64 6.64 0 0 1 4.64-1.67c1.8 0 3.48.64 3.48 1.8a2.24 2.24 0 0 1-.77 1.42l-17 15.84c1.54 4.64 2.83 8.12 3.86 10.95 1.8 4.77 4.89 6.7 8.76 6.7a8.92 8.92 0 0 0 7-3.61 2.86 2.86 0 0 1 2-1.13z"/></svg>