<svg xmlns="http://www.w3.org/2000/svg" xmlns:xlink="http://www.w3.org/1999/xlink" viewBox="0 0 1600 808"><style>.st0{display:none}.st1,.st2{display:inline;fill:none}.st2{fill:#4d4d4d}.st3{font-family:&amp;apos;Oswald-Bold&amp;apos;}.st4{font-size:187px}.st5{letter-spacing:-9}.st6{display:inline;fill:#fc14a2}.st7{font-size:412px}.st8{letter-spacing:-18}.st9{fill:#231f20}.st10,.st9{display:inline}.st11{font-size:12px}.st12{fill:#4d4d4d}.st13{fill:#fc14a2}</style><image width="1600" height="808" xlink:href="fresh_banner.jpg" overflow="visible" id="Layer_2" class="st0"/><g id="Layer_1_copy" class="st0"><path class="st1" d="M0 126.92h1600v187.356H0z"/><text transform="translate(321.47 291.275)" class="st2 st3 st4 st5">THE POWER OF</text><path class="st1" d="M2 295.92h1600V667H2z"/><text transform="translate(324.382 658.03)" class="st6 st3 st7 st8">FRESH</text><path class="st9" d="M740.094 698.944c.112-.78.167-1.561.167-2.342 0-6.466-4.125-11.762-10.703-11.762-5.296 0-13.1 4.292-13.1 11.762 0 4.739 4.07 3.401 4.07 4.851 0 .557-.781 1.171-3.01 1.171-3.011 0-5.854-2.063-5.854-6.021 0-8.194 9.365-13.602 18.452-13.602 8.808 0 15.498 5.742 15.498 14.383 0 .836-.055 1.672-.167 2.564-2.007 13.881-13.268 23.358-24.083 23.358-7.359 0-10.703-2.843-10.703-5.966 0-3.958 5.017-5.741 8.808-5.909l7.191-20.738c.557-1.672 2.508-2.843 3.791-2.843.725 0 1.171.335 1.171 1.059 0 .223 0 .446-.112.724l-7.749 22.41c2.229.836 3.066 2.453 3.066 3.735s-.836 2.174-1.729 2.174c-.724 0-.892-.558-.892-.948 0-.781-.445-1.394-1.393-2.174l-.223.669c-.557 1.728-2.62 2.843-3.846 2.843-.669 0-1.171-.335-1.171-1.004 0-.222.056-.501.167-.78l1.059-3.066c-1.282.111-3.624 1.059-3.624 3.289 0 2.509 2.397 4.181 8.083 4.181 8.028.001 14.996-9.252 16.836-22.018zm9.531 15.999c-.112.391-.223.836-.223 1.115 0 .445.167.724.558.724.836 0 3.01-1.449 5.686-4.571.335-.391.669-.445.948-.445.39 0 .669.167.669.557 0 .334-.223.892-.836 1.561-3.066 3.623-6.132 5.463-8.083 5.463-2.062 0-3.01-1.227-3.01-3.122 0-.613.112-1.337.334-2.062.836-2.899 2.23-5.575 2.843-6.858.167-.39.279-.613.279-.78 0-.167-.112-.222-.279-.222-.167 0-.334.056-.502.056-.39 0-.78-.167-.78-.558 0-1.115 2.955-3.177 5.798-3.177.78 0 1.115.334 1.115.836 0 .725-.613 1.896-1.227 3.233-1.06 2.285-2.398 5.239-3.29 8.25zm6.634-18.675c0 1.505-1.561 3.177-3.401 3.177-1.282 0-2.285-.892-2.285-2.062 0-1.617 1.728-3.178 3.456-3.178 1.226 0 2.23.725 2.23 2.063z"/><path class="st9" d="M765.177 723.194c-.725 2.898-1.394 5.741-1.896 8.417-1.059 5.575-4.46 8.697-7.47 8.697-3.067 0-4.293-2.955-4.293-5.965 0-6.522 5.407-10.592 10.09-12.32l1.115-4.348c-1.171 1.06-2.564 1.673-3.902 1.673-2.564 0-4.738-2.175-4.738-5.073 0-5.018 5.24-11.651 11.818-11.651 2.732 0 4.962 1.059 4.962 3.289 0 2.843-2.509 3.4-3.401 3.4-.781 0-2.007-.223-2.007-.948s1.784-.334 1.784-2.062c0-1.115-1.115-1.562-2.286-1.562-3.791 0-6.912 5.296-6.912 9.031 0 1.561.613 3.122 2.062 3.122 1.226 0 3.01-1.672 4.07-4.126.558-1.672 2.341-2.787 3.512-2.787.557 0 1.004.278 1.004.947 0 .223-.056.502-.167.781-.892 2.564-1.84 5.909-2.788 9.309 0 0 .558-.056 1.004-.056 11.428 0 19.233 3.234 28.208 3.234 2.564 0 5.017-1.282 6.243-2.899.391-.446.725-.669 1.059-.669.446 0 .725.334.725.836 0 1.115-.892 2.954-2.118 4.069-1.784 1.617-4.85 2.119-7.359 2.119-9.421 0-19.01-4.516-27.261-4.516-.333.002-.667.002-1.058.058zm-4.181 1.616c-3.401 2.118-5.686 6.132-5.686 9.867 0 2.397 1.003 3.289 1.84 3.289.892 0 1.449-1.337 2.007-4.069.557-2.955 1.17-6.076 1.839-9.087z"/><path class="st9" d="M800.687 696.212c0 .669-1.171 1.728-2.397 1.728h-6.244c-1.896 5.296-4.516 10.648-7.024 13.992.167 3.29.836 4.46 1.728 4.46 1.338 0 3.178-1.784 5.241-4.181.223-.279.613-.445.948-.445.334 0 .613.167.613.557s-.223.892-.78 1.561c-3.345 3.958-5.854 5.463-7.749 5.463-2.118 0-3.345-2.063-3.735-4.739-2.843 3.178-5.686 4.739-7.47 4.739-2.063 0-3.011-1.227-3.011-3.122 0-.613.112-1.337.335-2.062 1.059-3.624 3.122-7.024 3.122-7.582 0-.167-.111-.278-.279-.278-.167 0-.335.112-.614.112-.279 0-.669-.167-.669-.614 0-.892 2.732-3.177 5.798-3.177.78 0 1.059.334 1.059.836 0 .613-.502 1.784-1.171 3.233-1.059 2.286-2.397 5.296-3.289 8.251-.112.445-.167.78-.167 1.115 0 .39.112.724.502.724.836 0 3.01-1.449 5.686-4.571 0-4.739 1.115-9.756 2.732-14.271h-.669c-.613 0-.892-.223-.892-.557 0-.726 1.171-1.728 2.453-1.728 2.899-7.247 6.857-12.655 8.808-12.655.781 0 1.282.836 1.282 2.676 0 2.62-.724 6.244-1.951 9.979h6.912c.613-.001.892.221.892.556zm-18.954.056c0 1.505-1.561 3.177-3.401 3.177-1.282 0-2.286-.892-2.286-2.062 0-1.617 1.673-3.178 3.457-3.178 1.171 0 2.23.78 2.23 2.063zm3.289 12.655c1.84-3.29 3.233-7.415 4.181-10.982h-2.398c-.613 2.175-1.059 4.516-1.393 6.69a45.323 45.323 0 0 0-.39 4.292zm5.407-19.847c-.613 0-1.84 2.843-2.954 6.578h2.286c.669-2.843 1.003-4.906 1.003-5.296 0-.892-.112-1.282-.335-1.282z"/><path class="st9" d="M802.246 719.347c-1.672 0-2.508-.892-2.676-2.23-1.282 1.449-2.843 2.23-4.404 2.23-2.564 0-4.739-2.175-4.739-5.073 0-5.074 5.185-11.651 11.763-11.651 2.788 0 4.962 1.114 4.962 3.345 0 2.787-2.453 3.345-3.346 3.345-.78 0-2.006-.223-2.006-.948 0-.781 1.728-.334 1.728-2.118 0-1.115-1.115-1.506-2.23-1.506-4.014 0-6.913 5.575-6.913 9.031 0 1.561.613 3.122 2.063 3.122 1.17 0 3.066-1.672 4.014-4.126.613-1.672 2.341-2.787 3.512-2.787.613 0 1.004.278 1.004.891 0 .223-.056.502-.167.837-.223.724-1.394 4.069-1.394 4.571 0 .279.112.502.446.502.836 0 3.011-1.449 5.687-4.571.222-.279.613-.445.948-.445s.613.167.613.557-.222.892-.78 1.561c-3.067 3.623-6.134 5.463-8.085 5.463z"/><path class="st9" d="M813.059 711.932c.167 3.29.837 4.46 1.672 4.46 1.283 0 3.178-1.784 5.241-4.181.279-.279.613-.445.948-.445.391 0 .669.167.669.613 0 .334-.278.836-.836 1.505-3.345 3.958-5.798 5.463-7.694 5.463-2.731 0-3.958-3.289-3.958-7.024 0-13.602 9.143-29.323 12.487-29.323.78 0 1.282.836 1.282 2.676.001 6.801-5.127 19.957-9.811 26.256zm0-3.065c3.903-7.024 5.742-17.617 5.742-18.508 0-.893-.112-1.282-.335-1.282-1.058 0-3.902 8.529-5.017 15.554-.223 1.504-.39 3.009-.39 4.236z"/><path class="st9" d="M840.318 711.487c-.334 0-.612 0-.947-.056-2.453 3.624-5.128 6.076-7.136 7.247-.837.501-1.616.669-2.174.669-.446 0-.948-.112-1.17-.501-.502-.837-.725-1.784-.948-3.178-1.115 1.45-2.062 2.453-2.954 3.011a4.014 4.014 0 0 1-2.286.669c-.557 0-1.282-.112-1.505-.501-.836-1.283-1.282-4.516-1.282-7.75 0-2.341.167-4.237.613-5.63.613-1.784 2.452-2.843 3.512-2.843.613 0 1.059.334 1.059 1.003 0 .223-.056.502-.167.781-.836 2.453-1.282 4.738-1.282 7.024 0 .948.223 3.177.558 4.404.055.279.222.446.334.446.056 0 .167-.056.335-.222.614-.67 1.895-2.342 2.731-4.404v-.725c0-2.285.223-4.237.613-5.463.502-1.561 2.342-2.843 3.512-2.843.614 0 1.06.334 1.06 1.003 0 .223-.056.502-.167.781-.837 2.453-1.282 4.738-1.282 7.024 0 .948.278 3.4.557 4.404.056.279.223.446.335.446.056 0 .223-.056.391-.222.891-.78 2.954-2.899 4.515-5.463-1.673-1.059-2.62-3.011-2.62-5.408 0-4.014 2.397-6.076 4.739-6.076 1.84 0 3.512 1.338 3.512 4.013 0 1.672-.67 3.568-1.616 5.408 0 0 .279.056.613.056 1.45 0 2.62-.78 3.122-1.393.445-.502.892-.836 1.226-.836.279 0 .391.222.391.501a1.5 1.5 0 0 1-.223.724c-1.341 2.395-3.906 3.9-5.969 3.9zm-3.4-8.363c0 1.561.781 3.178 1.784 4.237.391-1.058.614-2.118.614-3.177 0-2.007-.781-2.899-1.393-2.899-.726 0-1.005 1.003-1.005 1.839z"/><path class="st9" d="M866.797 706.191c1.45.278 3.01.223 4.181.278.892.056 1.45.781 1.45 1.617 0 .39-.167.836-.502 1.114-.78.781-3.958 3.791-3.958 6.133 0 .891.39 1.282 1.003 1.282 1.393 0 4.013-1.784 6.244-4.404.278-.279.669-.445.948-.445.39 0 .669.167.669.557 0 .334-.223.892-.836 1.561-3.456 4.07-4.251 6.125-8.251 5.463-2.31-.382-3.624-1.896-3.624-3.568 0-1.449.78-3.289 3.178-5.407a12.451 12.451 0 0 1-2.843-.669c-2.509 2.954-5.91 5.184-8.696 5.24l-.335.445c-2.23 2.62-5.184 3.958-7.749 3.958-3.401 0-5.297-2.509-5.297-5.686 0-2.285.948-4.961 2.844-7.136.613-.724 1.727-1.84 2.507-2.285.223-.112.391-.223.558-.223.446 0 .781.446.781.948a.797.797 0 0 1-.223.557c-1.282 1.394-2.453 3.791-2.453 6.411 0 2.843 1.337 4.962 3.345 4.962 1.227 0 2.62-.892 3.568-2.23-2.676-.78-4.683-2.843-4.683-5.797 0-3.178 1.839-6.244 4.962-6.244 2.62 0 4.683 2.676 4.683 5.797a8.913 8.913 0 0 1-.781 3.679c1.84-.223 3.846-1.449 5.352-3.121-1.728-1.06-2.509-2.286-2.509-4.014 0-3.456 3.011-5.853 5.24-5.853 1.562 0 2.454 1.17 2.454 2.509 0 1.504-.446 3.01-1.227 4.571zm-16.055 1.449c0 2.007 1.672 3.456 3.791 4.126.112-.725.223-1.394.223-2.063 0-2.119-.67-4.348-2.175-4.348-1.17 0-1.839.947-1.839 2.285zm14.271-2.23c.335-.892.502-1.84.502-2.787 0-1.059-.335-1.45-.67-1.45-.501 0-1.17.78-1.17 1.728.001.892.558 1.84 1.338 2.509z"/><path class="st9" d="M889.428 716.448c.335 0 .558.167.558.558 0 .112 0 .278-.055.39-.893 2.342-3.958 3.178-5.91 3.178-2.62 0-5.017-1.506-5.965-3.68-.391-.892-.836-1.895-1.227-3.01 0 0-4.704 4.517-5.185 4.791-.845.482-1.783.672-1.783.672s-1.171-.223-1.171-.613c0-.223.112-.446.391-.725l6.912-6.689c-.39-1.171-.948-3.345-1.227-4.46-.055-.279-.278-.445-.501-.445-.445 0-.501.445-1.115.445-.334 0-.725-.223-.725-.669 0-1.283 2.676-3.568 4.237-3.568.725 0 1.227.501 1.45 1.449.278 1.115.613 2.564 1.115 4.126l5.017-4.85c.501-.501 1.282-.724 2.007-.724.78 0 1.505.278 1.505.78 0 .167-.112.39-.335.613l-7.358 6.857c.669 2.007 1.226 3.513 1.673 4.739.78 2.063 2.118 2.899 3.79 2.899 1.171 0 2.174-.557 3.01-1.561.279-.336.613-.503.892-.503z"/><path class="st1" d="M1261.417 295.983h37.498v35.998h-37.498z"/><text transform="translate(1261.417 306.53)" class="st10 st3 st11">TM</text></g><g id="Layer_1"><path class="st12" d="M276.941 295.36V134.35h-27.818v-28.661h93.466v28.661h-27.292v161.01h-38.356zm67.608 0V105.688h38.356v77.765h27.502v-77.765h38.567V295.36h-38.567v-84.615h-27.502v84.615h-38.356zm116.184 0V105.688h79.135v26.343h-40.779v51.633h28.872v26.976h-28.872v58.377h40.779v26.343h-79.135zm114.455 0V105.688h45.838c16.507 0 28.519 4.602 36.038 13.804 7.516 9.204 11.274 22.515 11.274 39.936 0 8.571-.826 16.017-2.476 22.339-1.651 6.322-3.951 11.538-6.902 15.648-2.95 4.109-6.744 7.412-11.38 9.905-4.636 2.494-9.659 4.251-15.069 5.269-5.41 1.019-11.661 1.564-18.755 1.633v81.137h-38.568zm38.672-108.219c2.036 0 3.846-.122 5.426-.369 1.581-.245 2.967-.526 4.163-.843a7.377 7.377 0 0 0 3.16-1.738 48.007 48.007 0 0 0 2.266-2.213c.596-.632 1.106-1.668 1.527-3.108.422-1.439.738-2.616.949-3.53.211-.912.369-2.388.474-4.426.105-2.036.158-3.67.158-4.9v-7.324c0-2.74-.018-4.811-.053-6.217-.036-1.404-.158-3.196-.369-5.374-.211-2.177-.545-3.81-1.001-4.9-.458-1.089-1.125-2.335-2.003-3.741-.879-1.404-1.95-2.424-3.214-3.056-1.264-.632-2.863-1.193-4.794-1.686-1.933-.491-4.162-.738-6.691-.738v54.163zm55.807 45.838v-63.751c0-44.818 18.475-67.228 55.426-67.228 37.02 0 55.532 22.41 55.532 67.228v62.802c0 7.587-.564 14.594-1.686 21.022-1.125 6.427-3.039 12.522-5.743 18.282-2.706 5.761-6.148 10.661-10.327 14.699-4.181 4.041-9.468 7.218-15.859 9.537-6.393 2.318-13.698 3.477-21.918 3.477-8.15 0-15.421-1.143-21.813-3.424-6.392-2.282-11.661-5.375-15.805-9.273-4.146-3.899-7.571-8.676-10.275-14.331-2.705-5.654-4.636-11.678-5.795-18.072-1.158-6.391-1.737-13.381-1.737-20.968zm72.602 8.64v-81.98c0-18.685-5.727-28.029-17.176-28.029-3.443 0-6.358.861-8.747 2.582-2.388 1.722-4.145 4.075-5.268 7.059-1.125 2.987-1.916 5.938-2.371 8.851-.458 2.916-.685 6.095-.685 9.537v81.98c0 18.617 5.69 27.924 17.07 27.924 11.45 0 17.177-9.307 17.177-27.924zm64.868 53.741L780.9 105.688h32.665l11.802 125.605 16.229-125.605h28.134l15.911 124.867 12.329-124.867h32.771L904.185 295.36h-32.771l-15.911-124.13-15.595 124.13h-32.771zm126.299 0V105.688h79.136v26.343h-40.78v51.633h28.873v26.976h-28.873v58.377h40.78v26.343h-79.136zm82.045 0V105.688h41.728c9.485 0 17.826.896 25.027 2.687 7.199 1.792 13.504 4.602 18.914 8.43 5.408 3.83 9.519 8.993 12.329 15.49 2.808 6.498 4.215 14.278 4.215 23.34 0 3.935-.142 7.447-.422 10.537-.282 3.092-.932 6.622-1.95 10.59-1.02 3.969-2.407 7.481-4.163 10.537-1.756 3.055-4.285 6.059-7.587 9.009-3.302 2.95-7.201 5.41-11.696 7.376 11.38 36.109 21.285 66.667 29.715 91.675h-39.725l-21.708-87.354h-6.322v87.354h-38.355zm38.356-110.747h10.959c2.95 0 5.479-.983 7.587-2.95 2.107-1.966 3.636-4.46 4.585-7.481.948-3.02 1.615-5.796 2.001-8.324.385-2.529.579-4.916.579-7.165 0-2.247-.158-4.565-.473-6.955-.317-2.388-.879-5.04-1.686-7.956-.809-2.914-2.144-5.303-4.004-7.165-1.863-1.86-4.128-2.792-6.797-2.792h-12.751v50.788zm99.072 48.366v-63.751c0-44.818 18.475-67.228 55.426-67.228 37.02 0 55.532 22.41 55.532 67.228v62.802c0 7.587-.563 14.594-1.686 21.022-1.125 6.427-3.04 12.522-5.743 18.282-2.706 5.761-6.148 10.661-10.327 14.699-4.181 4.041-9.468 7.218-15.859 9.537-6.393 2.318-13.698 3.477-21.918 3.477-8.15 0-15.421-1.143-21.813-3.424-6.392-2.282-11.661-5.375-15.805-9.273-4.146-3.899-7.571-8.676-10.275-14.331-2.705-5.654-4.636-11.678-5.795-18.072-1.158-6.391-1.737-13.381-1.737-20.968zm72.602 8.64v-81.98c0-18.685-5.727-28.029-17.176-28.029-3.443 0-6.358.861-8.746 2.582-2.388 1.722-4.145 4.075-5.268 7.059-1.125 2.987-1.916 5.938-2.371 8.851-.458 2.916-.685 6.095-.685 9.537v81.98c0 18.617 5.69 27.924 17.07 27.924 11.449 0 17.176-9.307 17.176-27.924zm47.692 53.741V105.688h79.136v26.343h-40.78v51.633h28.873v26.976h-28.873v84.72h-38.356z"/><path class="st13" d="M275.849 716.606V298.72H450.2v58.04h-89.846v113.758h63.612v59.433h-63.612v186.656h-84.505zm177.333 0V298.72h91.935c20.894 0 39.271 1.973 55.138 5.92 15.863 3.947 29.752 10.139 41.673 18.573 11.917 8.438 20.971 19.814 27.163 34.127 6.188 14.318 9.286 31.458 9.286 51.423 0 8.67-.312 16.407-.929 23.216-.62 6.813-2.053 14.59-4.295 23.332-2.245 8.747-5.304 16.483-9.17 23.216-3.87 6.733-9.442 13.349-16.715 19.85-7.277 6.5-15.867 11.92-25.77 16.251 25.073 79.554 46.896 146.88 65.469 201.978h-87.524l-47.825-192.46h-13.93v192.46h-84.506zm84.506-243.999h24.145c6.5 0 12.072-2.166 16.715-6.5 4.643-4.331 8.009-9.827 10.099-16.483 2.089-6.653 3.559-12.769 4.411-18.341.849-5.572 1.277-10.831 1.277-15.787 0-4.951-.348-10.059-1.045-15.322-.696-5.26-1.937-11.104-3.715-17.528-1.781-6.42-4.723-11.684-8.822-15.787-4.102-4.099-9.094-6.152-14.974-6.152h-28.091v111.9zm154.58 243.999V298.72H866.62v58.04h-89.846v113.758h63.612v59.433h-63.612v128.616h89.846v58.04H692.268z"/><path class="st13" d="M861.011 597.044l85.667-16.483c0 8.513.152 16.019.464 22.519.309 6.5 1.121 13.581 2.438 21.243 1.313 7.661 3.095 13.93 5.34 18.805 2.242 4.875 5.416 8.978 9.519 12.304 4.099 3.33 8.938 4.991 14.51 4.991 16.715 0 25.073-10.679 25.073-32.038 0-29.252-16.483-58.349-49.45-87.292l-26.234-22.287c-8.358-6.965-15.014-12.769-19.966-17.412-4.955-4.643-10.795-10.911-17.528-18.805s-11.996-15.514-15.787-22.868c-3.795-7.349-7.045-16.212-9.751-26.582-2.709-10.367-4.063-21.359-4.063-32.967 0-33.895 10.756-60.71 32.27-80.443 21.511-19.733 50.066-29.6 85.667-29.6 29.561 0 54.71 10.527 75.452 31.574 20.739 21.05 31.109 46.432 31.109 76.148l-.232 3.018v6.965l-87.292 12.072c0-1.701.116-4.371.348-8.009.232-3.635.348-6.617.348-8.938 0-5.572-.388-10.911-1.161-16.019-.776-5.108-2.053-10.215-3.831-15.323-1.781-5.107-4.527-9.17-8.242-12.188s-8.206-4.527-13.465-4.527c-9.286 0-16.251 3.638-20.894 10.911-4.643 7.277-6.965 15.867-6.965 25.77 0 8.67 1.354 16.795 4.063 24.377 2.706 7.585 6.809 14.667 12.304 21.243 5.492 6.58 10.563 12.036 15.206 16.367 4.643 4.334 10.831 9.635 18.573 15.903 7.738 6.268 13.233 10.875 16.483 13.813 11.917 10.527 21.975 20.394 30.181 29.6 8.202 9.211 15.939 19.617 23.216 31.225 7.274 11.608 12.729 24.145 16.367 37.61 3.635 13.465 5.456 28.015 5.456 43.646 0 29.252-10.447 53.204-31.341 71.853-20.894 18.653-46.28 27.975-76.148 27.975-19.349 0-36.529-3.562-51.539-10.679-15.014-7.117-27.127-16.792-36.333-29.02-9.21-12.224-16.291-25.77-21.243-40.628-4.955-14.857-7.816-30.796-8.589-47.824zm237.461 119.562V298.72h84.506v171.333h60.594V298.72h84.97v417.886h-84.97V530.183h-60.594v186.424h-84.506z"/><g class="st0"><path class="st9" d="M740.094 698.944c.112-.78.167-1.561.167-2.342 0-6.466-4.125-11.762-10.703-11.762-5.296 0-13.1 4.292-13.1 11.762 0 4.739 4.07 3.401 4.07 4.851 0 .557-.781 1.171-3.01 1.171-3.011 0-5.854-2.063-5.854-6.021 0-8.194 9.365-13.602 18.452-13.602 8.808 0 15.498 5.742 15.498 14.383 0 .836-.055 1.672-.167 2.564-2.007 13.881-13.268 23.358-24.083 23.358-7.359 0-10.703-2.843-10.703-5.966 0-3.958 5.017-5.741 8.808-5.909l7.191-20.738c.557-1.672 2.508-2.843 3.791-2.843.725 0 1.171.335 1.171 1.059 0 .223 0 .446-.112.724l-7.749 22.41c2.229.836 3.066 2.453 3.066 3.735s-.836 2.174-1.729 2.174c-.724 0-.892-.558-.892-.948 0-.781-.445-1.394-1.393-2.174l-.223.669c-.557 1.728-2.62 2.843-3.846 2.843-.669 0-1.171-.335-1.171-1.004 0-.222.056-.501.167-.78l1.059-3.066c-1.282.111-3.624 1.059-3.624 3.289 0 2.509 2.397 4.181 8.083 4.181 8.028.001 14.996-9.252 16.836-22.018zm9.531 15.999c-.112.391-.223.836-.223 1.115 0 .445.167.724.558.724.836 0 3.01-1.449 5.686-4.571.335-.391.669-.445.948-.445.39 0 .669.167.669.557 0 .334-.223.892-.836 1.561-3.066 3.623-6.132 5.463-8.083 5.463-2.062 0-3.01-1.227-3.01-3.122 0-.613.112-1.337.334-2.062.836-2.899 2.23-5.575 2.843-6.858.167-.39.279-.613.279-.78 0-.167-.112-.222-.279-.222-.167 0-.334.056-.502.056-.39 0-.78-.167-.78-.558 0-1.115 2.955-3.177 5.798-3.177.78 0 1.115.334 1.115.836 0 .725-.613 1.896-1.227 3.233-1.06 2.285-2.398 5.239-3.29 8.25zm6.634-18.675c0 1.505-1.561 3.177-3.401 3.177-1.282 0-2.285-.892-2.285-2.062 0-1.617 1.728-3.178 3.456-3.178 1.226 0 2.23.725 2.23 2.063z"/><path class="st9" d="M765.177 723.194c-.725 2.898-1.394 5.741-1.896 8.417-1.059 5.575-4.46 8.697-7.47 8.697-3.067 0-4.293-2.955-4.293-5.965 0-6.522 5.407-10.592 10.09-12.32l1.115-4.348c-1.171 1.06-2.564 1.673-3.902 1.673-2.564 0-4.738-2.175-4.738-5.073 0-5.018 5.24-11.651 11.818-11.651 2.732 0 4.962 1.059 4.962 3.289 0 2.843-2.509 3.4-3.401 3.4-.781 0-2.007-.223-2.007-.948s1.784-.334 1.784-2.062c0-1.115-1.115-1.562-2.286-1.562-3.791 0-6.912 5.296-6.912 9.031 0 1.561.613 3.122 2.062 3.122 1.226 0 3.01-1.672 4.07-4.126.558-1.672 2.341-2.787 3.512-2.787.557 0 1.004.278 1.004.947 0 .223-.056.502-.167.781-.892 2.564-1.84 5.909-2.788 9.309 0 0 .558-.056 1.004-.056 11.428 0 19.233 3.234 28.208 3.234 2.564 0 5.017-1.282 6.243-2.899.391-.446.725-.669 1.059-.669.446 0 .725.334.725.836 0 1.115-.892 2.954-2.118 4.069-1.784 1.617-4.85 2.119-7.359 2.119-9.421 0-19.01-4.516-27.261-4.516-.333.002-.667.002-1.058.058zm-4.181 1.616c-3.401 2.118-5.686 6.132-5.686 9.867 0 2.397 1.003 3.289 1.84 3.289.892 0 1.449-1.337 2.007-4.069.557-2.955 1.17-6.076 1.839-9.087z"/><path class="st9" d="M800.687 696.212c0 .669-1.171 1.728-2.397 1.728h-6.244c-1.896 5.296-4.516 10.648-7.024 13.992.167 3.29.836 4.46 1.728 4.46 1.338 0 3.178-1.784 5.241-4.181.223-.279.613-.445.948-.445.334 0 .613.167.613.557s-.223.892-.78 1.561c-3.345 3.958-5.854 5.463-7.749 5.463-2.118 0-3.345-2.063-3.735-4.739-2.843 3.178-5.686 4.739-7.47 4.739-2.063 0-3.011-1.227-3.011-3.122 0-.613.112-1.337.335-2.062 1.059-3.624 3.122-7.024 3.122-7.582 0-.167-.111-.278-.279-.278-.167 0-.335.112-.614.112-.279 0-.669-.167-.669-.614 0-.892 2.732-3.177 5.798-3.177.78 0 1.059.334 1.059.836 0 .613-.502 1.784-1.171 3.233-1.059 2.286-2.397 5.296-3.289 8.251-.112.445-.167.78-.167 1.115 0 .39.112.724.502.724.836 0 3.01-1.449 5.686-4.571 0-4.739 1.115-9.756 2.732-14.271h-.669c-.613 0-.892-.223-.892-.557 0-.726 1.171-1.728 2.453-1.728 2.899-7.247 6.857-12.655 8.808-12.655.781 0 1.282.836 1.282 2.676 0 2.62-.724 6.244-1.951 9.979h6.912c.613-.001.892.221.892.556zm-18.954.056c0 1.505-1.561 3.177-3.401 3.177-1.282 0-2.286-.892-2.286-2.062 0-1.617 1.673-3.178 3.457-3.178 1.171 0 2.23.78 2.23 2.063zm3.289 12.655c1.84-3.29 3.233-7.415 4.181-10.982h-2.398c-.613 2.175-1.059 4.516-1.393 6.69a45.323 45.323 0 0 0-.39 4.292zm5.407-19.847c-.613 0-1.84 2.843-2.954 6.578h2.286c.669-2.843 1.003-4.906 1.003-5.296 0-.892-.112-1.282-.335-1.282z"/><path class="st9" d="M802.246 719.347c-1.672 0-2.508-.892-2.676-2.23-1.282 1.449-2.843 2.23-4.404 2.23-2.564 0-4.739-2.175-4.739-5.073 0-5.074 5.185-11.651 11.763-11.651 2.788 0 4.962 1.114 4.962 3.345 0 2.787-2.453 3.345-3.346 3.345-.78 0-2.006-.223-2.006-.948 0-.781 1.728-.334 1.728-2.118 0-1.115-1.115-1.506-2.23-1.506-4.014 0-6.913 5.575-6.913 9.031 0 1.561.613 3.122 2.063 3.122 1.17 0 3.066-1.672 4.014-4.126.613-1.672 2.341-2.787 3.512-2.787.613 0 1.004.278 1.004.891 0 .223-.056.502-.167.837-.223.724-1.394 4.069-1.394 4.571 0 .279.112.502.446.502.836 0 3.011-1.449 5.687-4.571.222-.279.613-.445.948-.445s.613.167.613.557-.222.892-.78 1.561c-3.067 3.623-6.134 5.463-8.085 5.463z"/><path class="st9" d="M813.059 711.932c.167 3.29.837 4.46 1.672 4.46 1.283 0 3.178-1.784 5.241-4.181.279-.279.613-.445.948-.445.391 0 .669.167.669.613 0 .334-.278.836-.836 1.505-3.345 3.958-5.798 5.463-7.694 5.463-2.731 0-3.958-3.289-3.958-7.024 0-13.602 9.143-29.323 12.487-29.323.78 0 1.282.836 1.282 2.676.001 6.801-5.127 19.957-9.811 26.256zm0-3.065c3.903-7.024 5.742-17.617 5.742-18.508 0-.893-.112-1.282-.335-1.282-1.058 0-3.902 8.529-5.017 15.554-.223 1.504-.39 3.009-.39 4.236z"/><path class="st9" d="M840.318 711.487c-.334 0-.612 0-.947-.056-2.453 3.624-5.128 6.076-7.136 7.247-.837.501-1.616.669-2.174.669-.446 0-.948-.112-1.17-.501-.502-.837-.725-1.784-.948-3.178-1.115 1.45-2.062 2.453-2.954 3.011a4.014 4.014 0 0 1-2.286.669c-.557 0-1.282-.112-1.505-.501-.836-1.283-1.282-4.516-1.282-7.75 0-2.341.167-4.237.613-5.63.613-1.784 2.452-2.843 3.512-2.843.613 0 1.059.334 1.059 1.003 0 .223-.056.502-.167.781-.836 2.453-1.282 4.738-1.282 7.024 0 .948.223 3.177.558 4.404.055.279.222.446.334.446.056 0 .167-.056.335-.222.614-.67 1.895-2.342 2.731-4.404v-.725c0-2.285.223-4.237.613-5.463.502-1.561 2.342-2.843 3.512-2.843.614 0 1.06.334 1.06 1.003 0 .223-.056.502-.167.781-.837 2.453-1.282 4.738-1.282 7.024 0 .948.278 3.4.557 4.404.056.279.223.446.335.446.056 0 .223-.056.391-.222.891-.78 2.954-2.899 4.515-5.463-1.673-1.059-2.62-3.011-2.62-5.408 0-4.014 2.397-6.076 4.739-6.076 1.84 0 3.512 1.338 3.512 4.013 0 1.672-.67 3.568-1.616 5.408 0 0 .279.056.613.056 1.45 0 2.62-.78 3.122-1.393.445-.502.892-.836 1.226-.836.279 0 .391.222.391.501a1.5 1.5 0 0 1-.223.724c-1.341 2.395-3.906 3.9-5.969 3.9zm-3.4-8.363c0 1.561.781 3.178 1.784 4.237.391-1.058.614-2.118.614-3.177 0-2.007-.781-2.899-1.393-2.899-.726 0-1.005 1.003-1.005 1.839z"/><path class="st9" d="M866.797 706.191c1.45.278 3.01.223 4.181.278.892.056 1.45.781 1.45 1.617 0 .39-.167.836-.502 1.114-.78.781-3.958 3.791-3.958 6.133 0 .891.39 1.282 1.003 1.282 1.393 0 4.013-1.784 6.244-4.404.278-.279.669-.445.948-.445.39 0 .669.167.669.557 0 .334-.223.892-.836 1.561-3.456 4.07-4.251 6.125-8.251 5.463-2.31-.382-3.624-1.896-3.624-3.568 0-1.449.78-3.289 3.178-5.407a12.451 12.451 0 0 1-2.843-.669c-2.509 2.954-5.91 5.184-8.696 5.24l-.335.445c-2.23 2.62-5.184 3.958-7.749 3.958-3.401 0-5.297-2.509-5.297-5.686 0-2.285.948-4.961 2.844-7.136.613-.724 1.727-1.84 2.507-2.285.223-.112.391-.223.558-.223.446 0 .781.446.781.948a.797.797 0 0 1-.223.557c-1.282 1.394-2.453 3.791-2.453 6.411 0 2.843 1.337 4.962 3.345 4.962 1.227 0 2.62-.892 3.568-2.23-2.676-.78-4.683-2.843-4.683-5.797 0-3.178 1.839-6.244 4.962-6.244 2.62 0 4.683 2.676 4.683 5.797a8.913 8.913 0 0 1-.781 3.679c1.84-.223 3.846-1.449 5.352-3.121-1.728-1.06-2.509-2.286-2.509-4.014 0-3.456 3.011-5.853 5.24-5.853 1.562 0 2.454 1.17 2.454 2.509 0 1.504-.446 3.01-1.227 4.571zm-16.055 1.449c0 2.007 1.672 3.456 3.791 4.126.112-.725.223-1.394.223-2.063 0-2.119-.67-4.348-2.175-4.348-1.17 0-1.839.947-1.839 2.285zm14.271-2.23c.335-.892.502-1.84.502-2.787 0-1.059-.335-1.45-.67-1.45-.501 0-1.17.78-1.17 1.728.001.892.558 1.84 1.338 2.509z"/><path class="st9" d="M889.428 716.448c.335 0 .558.167.558.558 0 .112 0 .278-.055.39-.893 2.342-3.958 3.178-5.91 3.178-2.62 0-5.017-1.506-5.965-3.68-.391-.892-.836-1.895-1.227-3.01 0 0-4.704 4.517-5.185 4.791-.845.482-1.783.672-1.783.672s-1.171-.223-1.171-.613c0-.223.112-.446.391-.725l6.912-6.689c-.39-1.171-.948-3.345-1.227-4.46-.055-.279-.278-.445-.501-.445-.445 0-.501.445-1.115.445-.334 0-.725-.223-.725-.669 0-1.283 2.676-3.568 4.237-3.568.725 0 1.227.501 1.45 1.449.278 1.115.613 2.564 1.115 4.126l5.017-4.85c.501-.501 1.282-.724 2.007-.724.78 0 1.505.278 1.505.78 0 .167-.112.39-.335.613l-7.358 6.857c.669 2.007 1.226 3.513 1.673 4.739.78 2.063 2.118 2.899 3.79 2.899 1.171 0 2.174-.557 3.01-1.561.279-.336.613-.503.892-.503z"/></g><path d="M1333.046 309.53v-8.953h-1.547v-1.594h5.197v1.594h-1.518v8.953h-2.132zm4.359 0v-10.547h2.555l1.125 7.031 1.213-7.031h2.467v10.547h-1.57l-.047-7.418c-.117.762-.322 1.998-.615 3.709s-.498 2.947-.615 3.709h-1.594l-1.295-7.465-.047 7.465h-1.577z"/></g></svg>