<?xml version="1.0" encoding="utf-8"?>
<!-- Generator: Adobe Illustrator 21.0.2, SVG Export Plug-In . SVG Version: 6.00 Build 0)  -->
<svg version="1.1" xmlns="http://www.w3.org/2000/svg" xmlns:xlink="http://www.w3.org/1999/xlink" x="0px" y="0px"
	 viewBox="0 0 120 120" style="enable-background:new 0 0 120 120;" xml:space="preserve">
<style type="text/css">
	.st0{display:none;}
	.st1{display:inline;fill:#FC14A2;}
	.st2{fill:#FC14A2;}
</style>
<g id="iconmonstr" class="st0">
	<path id="log-out-3" class="st1" d="M41,45.75v-19L79,60L41,93.25v-19H3v-28.5H41z M69.5,12.5c-8.486,0-16.435,2.252-23.328,6.151
		l1.083,0.949l6.626,5.798C58.652,23.234,63.929,22,69.5,22c20.953,0,38,17.047,38,38s-17.047,38-38,38
		c-5.571,0-10.848-1.234-15.618-3.398l-6.626,5.798l-1.083,0.949c6.893,3.899,14.841,6.151,23.328,6.151
		c26.232,0,47.5-21.266,47.5-47.5S95.732,12.5,69.5,12.5z"/>
</g>
<g id="Layer_2" class="st0">
	<path class="st1" d="M36.609,23.12C49.84,23.126,56.945,37.395,60,43.696c3.067-6.326,10.096-20.536,23.415-20.536
		c8.419,0,17.481,5.353,17.481,17.103c0,14.078-19.402,32.108-40.896,53.167C38.498,72.365,19.104,54.339,19.104,40.263
		C19.104,29.32,27.139,23.116,36.609,23.12z M35.566,13C21.963,12.998,8.727,22.344,8.727,39.456c0,19.916,23.8,40.28,51.273,67.544
		c27.472-27.264,51.273-47.628,51.273-67.544c0-17.139-13.231-26.414-26.809-26.414c-9.418,0-18.998,4.454-24.464,13.834
		C54.509,17.452,44.949,13,35.566,13z"/>
</g>
<g id="Layer_3" class="st0">
	<path id="infinity-5" class="st1" d="M88.667,63.444v23.889H64.778l7.68-7.682C56.193,66.158,45.498,39.556,28.599,39.556
		c-10.096,0-16.619,7.537-16.619,19.111s6.523,19.111,16.619,19.111c7.951,0,13.666-5.102,19.181-11.427l5.944,7.456
		c-7.157,7.316-14.571,13.526-25.125,13.526c-15.271,0-25.932-11.728-25.932-28.667S13.328,30,28.599,30
		C51.718,30,63.667,60.81,79.2,72.911L88.667,63.444z M91.391,30c-10.563,0-17.973,6.217-25.134,13.538l5.944,7.458
		c5.52-6.332,11.235-11.44,19.19-11.44c10.102,0,16.629,7.537,16.629,19.111c0,8.692-3.686,15.105-9.798,17.763v10.027
		c11.524-2.975,19.111-13.517,19.111-27.789C117.333,41.728,106.667,30,91.391,30z"/>
</g>
<g id="Layer_4">
	<path id="wrench-11" class="st2" d="M60,9c-3.752,0-7.404,0.432-10.924,1.204l1.482,8.39C53.6,17.9,56.75,17.5,60,17.5
		c23.433,0,42.5,19.065,42.5,42.5c0,7.134-1.789,13.854-4.906,19.764l-5.852-5.85c-2.814-2.81-4.259-6.719-3.951-10.683
		c0.581-7.508-2-15.213-7.736-20.953C74.85,37.077,68.048,34.5,61.237,34.5c-2.565,0-5.13,0.365-7.612,1.094L69.654,51.62
		c1.735,8.029-9.903,19.804-18.029,18.029L35.596,53.623c-0.731,2.484-1.096,5.051-1.096,7.618c0,6.808,2.581,13.609,7.778,18.81
		c5.736,5.742,13.447,8.319,20.951,7.738c3.968-0.305,7.869,1.141,10.683,3.955l5.848,5.85C73.85,100.713,67.134,102.5,60,102.5
		c-23.433,0-42.5-19.065-42.5-42.5c0-8.135,2.341-15.714,6.33-22.174l9.234,9.235l5.748-29.808L9,22.993l8.658,8.658
		C12.208,39.759,9,49.495,9,60c0,28.166,22.835,51,51,51s51-22.834,51-51S88.165,9,60,9z"/>
</g>
</svg>
