<?xml version="1.0" encoding="utf-8"?>
<!-- Generator: Adobe Illustrator 21.0.2, SVG Export Plug-In . SVG Version: 6.00 Build 0)  -->
<svg version="1.1" xmlns="http://www.w3.org/2000/svg" xmlns:xlink="http://www.w3.org/1999/xlink" x="0px" y="0px"
	 viewBox="0 0 1600 808" style="enable-background:new 0 0 1600 808;" xml:space="preserve">
<metadata><?xpacket begin="﻿" id="W5M0MpCehiHzreSzNTczkc9d"?>
<x:xmpmeta xmlns:x="adobe:ns:meta/" x:xmptk="Adobe XMP Core 5.6-c137 79.159768, 2016/08/11-13:24:42        ">
   <rdf:RDF xmlns:rdf="http://www.w3.org/1999/02/22-rdf-syntax-ns#">
      <rdf:Description rdf:about=""
            xmlns:ExtensisFontSense="http://www.extensis.com/meta/FontSense/">
         <ExtensisFontSense:slug>
            <rdf:Bag>
               <rdf:li>
                  <rdf:Description>
                     <ExtensisFontSense:Family>Oswald</ExtensisFontSense:Family>
                     <ExtensisFontSense:Version>2.002</ExtensisFontSense:Version>
                     <ExtensisFontSense:OutlineFileSize>0</ExtensisFontSense:OutlineFileSize>
                     <ExtensisFontSense:KerningChecksum>0</ExtensisFontSense:KerningChecksum>
                     <ExtensisFontSense:Foundry>--</ExtensisFontSense:Foundry>
                     <ExtensisFontSense:FontKind>OpenType - TT</ExtensisFontSense:FontKind>
                     <ExtensisFontSense:Checksum>655702907</ExtensisFontSense:Checksum>
                     <ExtensisFontSense:PostScriptName>Oswald-Bold</ExtensisFontSense:PostScriptName>
                     <ExtensisFontSense:FontSense_1.2_Checksum>655702907</ExtensisFontSense:FontSense_1.2_Checksum>
                  </rdf:Description>
               </rdf:li>
            </rdf:Bag>
         </ExtensisFontSense:slug>
      </rdf:Description>
   </rdf:RDF>
</x:xmpmeta>
                                                                                                    
                                                                                                    
                                                                                                    
                                                                                                    
                                                                                                    
                                                                                                    
                                                                                                    
                                                                                                    
                                                                                                    
                                                                                                    
                                                                                                    
                                                                                                    
                                                                                                    
                                                                                                    
                                                                                                    
                                                                                                    
                                                                                                    
                                                                                                    
                                                                                                    
                                                                                                    
                           
<?xpacket end="w"?></metadata>
<style type="text/css">
	.st0{display:none;}
	.st1{display:inline;fill:none;}
	.st2{display:inline;fill:#4D4D4D;}
	.st3{font-family:'Oswald-Bold';}
	.st4{font-size:187px;}
	.st5{letter-spacing:-9;}
	.st6{display:inline;fill:#FC14A2;}
	.st7{font-size:412px;}
	.st8{letter-spacing:-18;}
	.st9{display:inline;fill:#231F20;}
	.st10{display:inline;}
	.st11{font-size:12px;}
	.st12{fill:#4D4D4D;}
	.st13{fill:#FC14A2;}
</style>
<g id="Layer_2" class="st0">
	<image style="display:inline;overflow:visible;" width="1600" height="808" xlink:href="fresh_banner.jpg" >
	</image>
</g>
<g id="Layer_1_copy" class="st0">
	<rect y="126.92" class="st1" width="1600" height="187.356"/>
	<text transform="matrix(1 0 0 1 321.4697 291.2749)" class="st2 st3 st4 st5">THE POWER OF </text>
	<rect x="2" y="295.92" class="st1" width="1600" height="371.08"/>
	<text transform="matrix(1 0 0 1 324.3818 658.0293)" class="st6 st3 st7 st8">FRESH</text>
	<g>
		<path class="st9" d="M740.094,698.944c0.112-0.78,0.167-1.561,0.167-2.342c0-6.466-4.125-11.762-10.703-11.762
			c-5.296,0-13.1,4.292-13.1,11.762c0,4.739,4.07,3.401,4.07,4.851c0,0.557-0.781,1.171-3.01,1.171
			c-3.011,0-5.854-2.063-5.854-6.021c0-8.194,9.365-13.602,18.452-13.602c8.808,0,15.498,5.742,15.498,14.383
			c0,0.836-0.055,1.672-0.167,2.564c-2.007,13.881-13.268,23.358-24.083,23.358c-7.359,0-10.703-2.843-10.703-5.966
			c0-3.958,5.017-5.741,8.808-5.909l7.191-20.738c0.557-1.672,2.508-2.843,3.791-2.843c0.725,0,1.171,0.335,1.171,1.059
			c0,0.223,0,0.446-0.112,0.724l-7.749,22.41c2.229,0.836,3.066,2.453,3.066,3.735c0,1.282-0.836,2.174-1.729,2.174
			c-0.724,0-0.892-0.558-0.892-0.948c0-0.781-0.445-1.394-1.393-2.174l-0.223,0.669c-0.557,1.728-2.62,2.843-3.846,2.843
			c-0.669,0-1.171-0.335-1.171-1.004c0-0.222,0.056-0.501,0.167-0.78l1.059-3.066c-1.282,0.111-3.624,1.059-3.624,3.289
			c0,2.509,2.397,4.181,8.083,4.181C731.286,720.963,738.254,711.71,740.094,698.944z"/>
		<path class="st9" d="M749.625,714.943c-0.112,0.391-0.223,0.836-0.223,1.115c0,0.445,0.167,0.724,0.558,0.724
			c0.836,0,3.01-1.449,5.686-4.571c0.335-0.391,0.669-0.445,0.948-0.445c0.39,0,0.669,0.167,0.669,0.557
			c0,0.334-0.223,0.892-0.836,1.561c-3.066,3.623-6.132,5.463-8.083,5.463c-2.062,0-3.01-1.227-3.01-3.122
			c0-0.613,0.112-1.337,0.334-2.062c0.836-2.899,2.23-5.575,2.843-6.858c0.167-0.39,0.279-0.613,0.279-0.78
			c0-0.167-0.112-0.222-0.279-0.222c-0.167,0-0.334,0.056-0.502,0.056c-0.39,0-0.78-0.167-0.78-0.558
			c0-1.115,2.955-3.177,5.798-3.177c0.78,0,1.115,0.334,1.115,0.836c0,0.725-0.613,1.896-1.227,3.233
			C751.855,708.978,750.517,711.932,749.625,714.943z M756.259,696.268c0,1.505-1.561,3.177-3.401,3.177
			c-1.282,0-2.285-0.892-2.285-2.062c0-1.617,1.728-3.178,3.456-3.178C755.255,694.205,756.259,694.93,756.259,696.268z"/>
		<path class="st9" d="M765.177,723.194c-0.725,2.898-1.394,5.741-1.896,8.417c-1.059,5.575-4.46,8.697-7.47,8.697
			c-3.067,0-4.293-2.955-4.293-5.965c0-6.522,5.407-10.592,10.09-12.32l1.115-4.348c-1.171,1.06-2.564,1.673-3.902,1.673
			c-2.564,0-4.738-2.175-4.738-5.073c0-5.018,5.24-11.651,11.818-11.651c2.732,0,4.962,1.059,4.962,3.289
			c0,2.843-2.509,3.4-3.401,3.4c-0.781,0-2.007-0.223-2.007-0.948c0-0.725,1.784-0.334,1.784-2.062c0-1.115-1.115-1.562-2.286-1.562
			c-3.791,0-6.912,5.296-6.912,9.031c0,1.561,0.613,3.122,2.062,3.122c1.226,0,3.01-1.672,4.07-4.126
			c0.558-1.672,2.341-2.787,3.512-2.787c0.557,0,1.004,0.278,1.004,0.947c0,0.223-0.056,0.502-0.167,0.781
			c-0.892,2.564-1.84,5.909-2.788,9.309c0,0,0.558-0.056,1.004-0.056c11.428,0,19.233,3.234,28.208,3.234
			c2.564,0,5.017-1.282,6.243-2.899c0.391-0.446,0.725-0.669,1.059-0.669c0.446,0,0.725,0.334,0.725,0.836
			c0,1.115-0.892,2.954-2.118,4.069c-1.784,1.617-4.85,2.119-7.359,2.119c-9.421,0-19.01-4.516-27.261-4.516
			C765.902,723.138,765.568,723.138,765.177,723.194z M760.996,724.81c-3.401,2.118-5.686,6.132-5.686,9.867
			c0,2.397,1.003,3.289,1.84,3.289c0.892,0,1.449-1.337,2.007-4.069C759.714,730.942,760.327,727.821,760.996,724.81z"/>
		<path class="st9" d="M800.687,696.212c0,0.669-1.171,1.728-2.397,1.728h-6.244c-1.896,5.296-4.516,10.648-7.024,13.992
			c0.167,3.29,0.836,4.46,1.728,4.46c1.338,0,3.178-1.784,5.241-4.181c0.223-0.279,0.613-0.445,0.948-0.445
			c0.334,0,0.613,0.167,0.613,0.557c0,0.39-0.223,0.892-0.78,1.561c-3.345,3.958-5.854,5.463-7.749,5.463
			c-2.118,0-3.345-2.063-3.735-4.739c-2.843,3.178-5.686,4.739-7.47,4.739c-2.063,0-3.011-1.227-3.011-3.122
			c0-0.613,0.112-1.337,0.335-2.062c1.059-3.624,3.122-7.024,3.122-7.582c0-0.167-0.111-0.278-0.279-0.278
			c-0.167,0-0.335,0.112-0.614,0.112c-0.279,0-0.669-0.167-0.669-0.614c0-0.892,2.732-3.177,5.798-3.177
			c0.78,0,1.059,0.334,1.059,0.836c0,0.613-0.502,1.784-1.171,3.233c-1.059,2.286-2.397,5.296-3.289,8.251
			c-0.112,0.445-0.167,0.78-0.167,1.115c0,0.39,0.112,0.724,0.502,0.724c0.836,0,3.01-1.449,5.686-4.571
			c0-4.739,1.115-9.756,2.732-14.271h-0.669c-0.613,0-0.892-0.223-0.892-0.557c0-0.726,1.171-1.728,2.453-1.728
			c2.899-7.247,6.857-12.655,8.808-12.655c0.781,0,1.282,0.836,1.282,2.676c0,2.62-0.724,6.244-1.951,9.979h6.912
			C800.408,695.655,800.687,695.877,800.687,696.212z M781.733,696.268c0,1.505-1.561,3.177-3.401,3.177
			c-1.282,0-2.286-0.892-2.286-2.062c0-1.617,1.673-3.178,3.457-3.178C780.674,694.205,781.733,694.985,781.733,696.268z
			 M785.022,708.923c1.84-3.29,3.233-7.415,4.181-10.982h-2.398c-0.613,2.175-1.059,4.516-1.393,6.69
			C785.189,706.191,785.078,707.696,785.022,708.923z M790.429,689.076c-0.613,0-1.84,2.843-2.954,6.578h2.286
			c0.669-2.843,1.003-4.906,1.003-5.296C790.764,689.466,790.652,689.076,790.429,689.076z"/>
		<path class="st9" d="M802.246,719.347c-1.672,0-2.508-0.892-2.676-2.23c-1.282,1.449-2.843,2.23-4.404,2.23
			c-2.564,0-4.739-2.175-4.739-5.073c0-5.074,5.185-11.651,11.763-11.651c2.788,0,4.962,1.114,4.962,3.345
			c0,2.787-2.453,3.345-3.346,3.345c-0.78,0-2.006-0.223-2.006-0.948c0-0.781,1.728-0.334,1.728-2.118
			c0-1.115-1.115-1.506-2.23-1.506c-4.014,0-6.913,5.575-6.913,9.031c0,1.561,0.613,3.122,2.063,3.122
			c1.17,0,3.066-1.672,4.014-4.126c0.613-1.672,2.341-2.787,3.512-2.787c0.613,0,1.004,0.278,1.004,0.891
			c0,0.223-0.056,0.502-0.167,0.837c-0.223,0.724-1.394,4.069-1.394,4.571c0,0.279,0.112,0.502,0.446,0.502
			c0.836,0,3.011-1.449,5.687-4.571c0.222-0.279,0.613-0.445,0.948-0.445s0.613,0.167,0.613,0.557c0,0.39-0.222,0.892-0.78,1.561
			C807.264,717.507,804.197,719.347,802.246,719.347z"/>
		<path class="st9" d="M813.059,711.932c0.167,3.29,0.837,4.46,1.672,4.46c1.283,0,3.178-1.784,5.241-4.181
			c0.279-0.279,0.613-0.445,0.948-0.445c0.391,0,0.669,0.167,0.669,0.613c0,0.334-0.278,0.836-0.836,1.505
			c-3.345,3.958-5.798,5.463-7.694,5.463c-2.731,0-3.958-3.289-3.958-7.024c0-13.602,9.143-29.323,12.487-29.323
			c0.78,0,1.282,0.836,1.282,2.676C822.871,692.477,817.743,705.633,813.059,711.932z M813.059,708.867
			c3.903-7.024,5.742-17.617,5.742-18.508c0-0.893-0.112-1.282-0.335-1.282c-1.058,0-3.902,8.529-5.017,15.554
			C813.226,706.135,813.059,707.64,813.059,708.867z"/>
		<path class="st9" d="M840.318,711.487c-0.334,0-0.612,0-0.947-0.056c-2.453,3.624-5.128,6.076-7.136,7.247
			c-0.837,0.501-1.616,0.669-2.174,0.669c-0.446,0-0.948-0.112-1.17-0.501c-0.502-0.837-0.725-1.784-0.948-3.178
			c-1.115,1.45-2.062,2.453-2.954,3.011c-0.78,0.501-1.505,0.669-2.286,0.669c-0.557,0-1.282-0.112-1.505-0.501
			c-0.836-1.283-1.282-4.516-1.282-7.75c0-2.341,0.167-4.237,0.613-5.63c0.613-1.784,2.452-2.843,3.512-2.843
			c0.613,0,1.059,0.334,1.059,1.003c0,0.223-0.056,0.502-0.167,0.781c-0.836,2.453-1.282,4.738-1.282,7.024
			c0,0.948,0.223,3.177,0.558,4.404c0.055,0.279,0.222,0.446,0.334,0.446c0.056,0,0.167-0.056,0.335-0.222
			c0.614-0.67,1.895-2.342,2.731-4.404c0-0.223,0-0.502,0-0.725c0-2.285,0.223-4.237,0.613-5.463
			c0.502-1.561,2.342-2.843,3.512-2.843c0.614,0,1.06,0.334,1.06,1.003c0,0.223-0.056,0.502-0.167,0.781
			c-0.837,2.453-1.282,4.738-1.282,7.024c0,0.948,0.278,3.4,0.557,4.404c0.056,0.279,0.223,0.446,0.335,0.446
			c0.056,0,0.223-0.056,0.391-0.222c0.891-0.78,2.954-2.899,4.515-5.463c-1.673-1.059-2.62-3.011-2.62-5.408
			c0-4.014,2.397-6.076,4.739-6.076c1.84,0,3.512,1.338,3.512,4.013c0,1.672-0.67,3.568-1.616,5.408c0,0,0.279,0.056,0.613,0.056
			c1.45,0,2.62-0.78,3.122-1.393c0.445-0.502,0.892-0.836,1.226-0.836c0.279,0,0.391,0.222,0.391,0.501
			c0,0.167-0.056,0.445-0.223,0.724C844.946,709.982,842.381,711.487,840.318,711.487z M836.918,703.124
			c0,1.561,0.781,3.178,1.784,4.237c0.391-1.058,0.614-2.118,0.614-3.177c0-2.007-0.781-2.899-1.393-2.899
			C837.197,701.285,836.918,702.288,836.918,703.124z"/>
		<path class="st9" d="M866.797,706.191c1.45,0.278,3.01,0.223,4.181,0.278c0.892,0.056,1.45,0.781,1.45,1.617
			c0,0.39-0.167,0.836-0.502,1.114c-0.78,0.781-3.958,3.791-3.958,6.133c0,0.891,0.39,1.282,1.003,1.282
			c1.393,0,4.013-1.784,6.244-4.404c0.278-0.279,0.669-0.445,0.948-0.445c0.39,0,0.669,0.167,0.669,0.557
			c0,0.334-0.223,0.892-0.836,1.561c-3.456,4.07-4.251,6.125-8.251,5.463c-2.31-0.382-3.624-1.896-3.624-3.568
			c0-1.449,0.78-3.289,3.178-5.407c-0.948-0.112-1.952-0.335-2.843-0.669c-2.509,2.954-5.91,5.184-8.696,5.24l-0.335,0.445
			c-2.23,2.62-5.184,3.958-7.749,3.958c-3.401,0-5.297-2.509-5.297-5.686c0-2.285,0.948-4.961,2.844-7.136
			c0.613-0.724,1.727-1.84,2.507-2.285c0.223-0.112,0.391-0.223,0.558-0.223c0.446,0,0.781,0.446,0.781,0.948
			c0,0.167-0.056,0.391-0.223,0.557c-1.282,1.394-2.453,3.791-2.453,6.411c0,2.843,1.337,4.962,3.345,4.962
			c1.227,0,2.62-0.892,3.568-2.23c-2.676-0.78-4.683-2.843-4.683-5.797c0-3.178,1.839-6.244,4.962-6.244
			c2.62,0,4.683,2.676,4.683,5.797c0,1.171-0.223,2.453-0.781,3.679c1.84-0.223,3.846-1.449,5.352-3.121
			c-1.728-1.06-2.509-2.286-2.509-4.014c0-3.456,3.011-5.853,5.24-5.853c1.562,0,2.454,1.17,2.454,2.509
			C868.024,703.124,867.578,704.63,866.797,706.191z M850.742,707.64c0,2.007,1.672,3.456,3.791,4.126
			c0.112-0.725,0.223-1.394,0.223-2.063c0-2.119-0.67-4.348-2.175-4.348C851.411,705.355,850.742,706.302,850.742,707.64z
			 M865.013,705.41c0.335-0.892,0.502-1.84,0.502-2.787c0-1.059-0.335-1.45-0.67-1.45c-0.501,0-1.17,0.78-1.17,1.728
			C863.676,703.793,864.233,704.741,865.013,705.41z"/>
		<path class="st9" d="M889.428,716.448c0.335,0,0.558,0.167,0.558,0.558c0,0.112,0,0.278-0.055,0.39
			c-0.893,2.342-3.958,3.178-5.91,3.178c-2.62,0-5.017-1.506-5.965-3.68c-0.391-0.892-0.836-1.895-1.227-3.01
			c0,0-4.704,4.517-5.185,4.791c-0.845,0.482-1.783,0.672-1.783,0.672s-1.171-0.223-1.171-0.613c0-0.223,0.112-0.446,0.391-0.725
			l6.912-6.689c-0.39-1.171-0.948-3.345-1.227-4.46c-0.055-0.279-0.278-0.445-0.501-0.445c-0.445,0-0.501,0.445-1.115,0.445
			c-0.334,0-0.725-0.223-0.725-0.669c0-1.283,2.676-3.568,4.237-3.568c0.725,0,1.227,0.501,1.45,1.449
			c0.278,1.115,0.613,2.564,1.115,4.126l5.017-4.85c0.501-0.501,1.282-0.724,2.007-0.724c0.78,0,1.505,0.278,1.505,0.78
			c0,0.167-0.112,0.39-0.335,0.613l-7.358,6.857c0.669,2.007,1.226,3.513,1.673,4.739c0.78,2.063,2.118,2.899,3.79,2.899
			c1.171,0,2.174-0.557,3.01-1.561C888.815,716.615,889.149,716.448,889.428,716.448z"/>
	</g>
	<rect x="1261.417" y="295.983" class="st1" width="37.498" height="35.998"/>
	<text transform="matrix(1 0 0 1 1261.417 306.5303)" class="st10 st3 st11">TM</text>
</g>
<g id="Layer_1">
	<g>
		<path class="st12" d="M276.941,295.36V134.35h-27.818v-28.661h93.466v28.661h-27.292v161.01H276.941z"/>
		<path class="st12" d="M344.549,295.36V105.688h38.356v77.765h27.502v-77.765h38.567V295.36h-38.567v-84.615h-27.502v84.615
			H344.549z"/>
		<path class="st12" d="M460.733,295.36V105.688h79.135v26.343h-40.779v51.633h28.872v26.976h-28.872v58.377h40.779v26.343H460.733z
			"/>
		<path class="st12" d="M575.188,295.36V105.688h45.838c16.507,0,28.519,4.602,36.038,13.804
			c7.516,9.204,11.274,22.515,11.274,39.936c0,8.571-0.826,16.017-2.476,22.339c-1.651,6.322-3.951,11.538-6.902,15.648
			c-2.95,4.109-6.744,7.412-11.38,9.905c-4.636,2.494-9.659,4.251-15.069,5.269c-5.41,1.019-11.661,1.564-18.755,1.633v81.137
			H575.188z M613.86,187.141c2.036,0,3.846-0.122,5.426-0.369c1.581-0.245,2.967-0.526,4.163-0.843
			c1.193-0.316,2.247-0.895,3.16-1.738c0.913-0.843,1.668-1.581,2.266-2.213c0.596-0.632,1.106-1.668,1.527-3.108
			c0.422-1.439,0.738-2.616,0.949-3.53c0.211-0.912,0.369-2.388,0.474-4.426c0.105-2.036,0.158-3.67,0.158-4.9
			c0-1.228,0-3.143,0-5.743c0-0.702,0-1.228,0-1.581c0-2.74-0.018-4.811-0.053-6.217c-0.036-1.404-0.158-3.196-0.369-5.374
			c-0.211-2.177-0.545-3.81-1.001-4.9c-0.458-1.089-1.125-2.335-2.003-3.741c-0.879-1.404-1.95-2.424-3.214-3.056
			c-1.264-0.632-2.863-1.193-4.794-1.686c-1.933-0.491-4.162-0.738-6.691-0.738V187.141z"/>
		<path class="st12" d="M669.667,232.979v-63.751c0-44.818,18.475-67.228,55.426-67.228c37.02,0,55.532,22.41,55.532,67.228v62.802
			c0,7.587-0.564,14.594-1.686,21.022c-1.125,6.427-3.039,12.522-5.743,18.282c-2.706,5.761-6.148,10.661-10.327,14.699
			c-4.181,4.041-9.468,7.218-15.859,9.537c-6.393,2.318-13.698,3.477-21.918,3.477c-8.15,0-15.421-1.143-21.813-3.424
			c-6.392-2.282-11.661-5.375-15.805-9.273c-4.146-3.899-7.571-8.676-10.275-14.331c-2.705-5.654-4.636-11.678-5.795-18.072
			C670.246,247.556,669.667,240.566,669.667,232.979z M742.269,241.619v-81.98c0-18.685-5.727-28.029-17.176-28.029
			c-3.443,0-6.358,0.861-8.747,2.582c-2.388,1.722-4.145,4.075-5.268,7.059c-1.125,2.987-1.916,5.938-2.371,8.851
			c-0.458,2.916-0.685,6.095-0.685,9.537v81.98c0,18.617,5.69,27.924,17.07,27.924C736.542,269.543,742.269,260.236,742.269,241.619
			z"/>
		<path class="st12" d="M807.137,295.36L780.9,105.688h32.665l11.802,125.605l16.229-125.605h28.134l15.911,124.867l12.329-124.867
			h32.771L904.185,295.36h-32.771l-15.911-124.13l-15.595,124.13H807.137z"/>
		<path class="st12" d="M933.436,295.36V105.688h79.136v26.343h-40.78v51.633h28.873v26.976h-28.873v58.377h40.78v26.343H933.436z"
			/>
		<path class="st12" d="M1015.481,295.36V105.688h41.728c9.485,0,17.826,0.896,25.027,2.687c7.199,1.792,13.504,4.602,18.914,8.43
			c5.408,3.83,9.519,8.993,12.329,15.49c2.808,6.498,4.215,14.278,4.215,23.34c0,3.935-0.142,7.447-0.422,10.537
			c-0.282,3.092-0.932,6.622-1.95,10.59c-1.02,3.969-2.407,7.481-4.163,10.537c-1.756,3.055-4.285,6.059-7.587,9.009
			c-3.302,2.95-7.201,5.41-11.696,7.376c11.38,36.109,21.285,66.667,29.715,91.675h-39.725l-21.708-87.354h-6.322v87.354H1015.481z
			 M1053.837,184.613h10.959c2.95,0,5.479-0.983,7.587-2.95c2.107-1.966,3.636-4.46,4.585-7.481c0.948-3.02,1.615-5.796,2.001-8.324
			c0.385-2.529,0.579-4.916,0.579-7.165c0-2.247-0.158-4.565-0.473-6.955c-0.317-2.388-0.879-5.04-1.686-7.956
			c-0.809-2.914-2.144-5.303-4.004-7.165c-1.863-1.86-4.128-2.792-6.797-2.792h-12.751V184.613z"/>
		<path class="st12" d="M1152.909,232.979v-63.751c0-44.818,18.475-67.228,55.426-67.228c37.02,0,55.532,22.41,55.532,67.228v62.802
			c0,7.587-0.563,14.594-1.686,21.022c-1.125,6.427-3.04,12.522-5.743,18.282c-2.706,5.761-6.148,10.661-10.327,14.699
			c-4.181,4.041-9.468,7.218-15.859,9.537c-6.393,2.318-13.698,3.477-21.918,3.477c-8.15,0-15.421-1.143-21.813-3.424
			c-6.392-2.282-11.661-5.375-15.805-9.273c-4.146-3.899-7.571-8.676-10.275-14.331c-2.705-5.654-4.636-11.678-5.795-18.072
			C1153.488,247.556,1152.909,240.566,1152.909,232.979z M1225.511,241.619v-81.98c0-18.685-5.727-28.029-17.176-28.029
			c-3.443,0-6.358,0.861-8.746,2.582c-2.388,1.722-4.145,4.075-5.268,7.059c-1.125,2.987-1.916,5.938-2.371,8.851
			c-0.458,2.916-0.685,6.095-0.685,9.537v81.98c0,18.617,5.69,27.924,17.07,27.924
			C1219.784,269.543,1225.511,260.236,1225.511,241.619z"/>
		<path class="st12" d="M1273.203,295.36V105.688h79.136v26.343h-40.78v51.633h28.873v26.976h-28.873v84.72H1273.203z"/>
	</g>
	<g>
		<path class="st13" d="M275.849,716.606V298.72h174.351v58.04h-89.846v113.758h63.612v59.433h-63.612v186.656H275.849z"/>
		<path class="st13" d="M453.182,716.606V298.72h91.935c20.894,0,39.271,1.973,55.138,5.92
			c15.863,3.947,29.752,10.139,41.673,18.573c11.917,8.438,20.971,19.814,27.163,34.127c6.188,14.318,9.286,31.458,9.286,51.423
			c0,8.67-0.312,16.407-0.929,23.216c-0.62,6.813-2.053,14.59-4.295,23.332c-2.245,8.747-5.304,16.483-9.17,23.216
			c-3.87,6.733-9.442,13.349-16.715,19.85c-7.277,6.5-15.867,11.92-25.77,16.251c25.073,79.554,46.896,146.88,65.469,201.978
			h-87.524l-47.825-192.46h-13.93v192.46H453.182z M537.688,472.607h24.145c6.5,0,12.072-2.166,16.715-6.5
			c4.643-4.331,8.009-9.827,10.099-16.483c2.089-6.653,3.559-12.769,4.411-18.341c0.849-5.572,1.277-10.831,1.277-15.787
			c0-4.951-0.348-10.059-1.045-15.322c-0.696-5.26-1.937-11.104-3.715-17.528c-1.781-6.42-4.723-11.684-8.822-15.787
			c-4.102-4.099-9.094-6.152-14.974-6.152h-28.091V472.607z"/>
		<path class="st13" d="M692.268,716.606V298.72H866.62v58.04h-89.846v113.758h63.612v59.433h-63.612v128.616h89.846v58.04H692.268z
			"/>
		<path class="st13" d="M861.011,597.044l85.667-16.483c0,8.513,0.152,16.019,0.464,22.519c0.309,6.5,1.121,13.581,2.438,21.243
			c1.313,7.661,3.095,13.93,5.34,18.805c2.242,4.875,5.416,8.978,9.519,12.304c4.099,3.33,8.938,4.991,14.51,4.991
			c16.715,0,25.073-10.679,25.073-32.038c0-29.252-16.483-58.349-49.45-87.292l-26.234-22.287
			c-8.358-6.965-15.014-12.769-19.966-17.412c-4.955-4.643-10.795-10.911-17.528-18.805s-11.996-15.514-15.787-22.868
			c-3.795-7.349-7.045-16.212-9.751-26.582c-2.709-10.367-4.063-21.359-4.063-32.967c0-33.895,10.756-60.71,32.27-80.443
			c21.511-19.733,50.066-29.6,85.667-29.6c29.561,0,54.71,10.527,75.452,31.574c20.739,21.05,31.109,46.432,31.109,76.148
			l-0.232,3.018c0,2.013,0,4.335,0,6.965l-87.292,12.072c0-1.701,0.116-4.371,0.348-8.009c0.232-3.635,0.348-6.617,0.348-8.938
			c0-5.572-0.388-10.911-1.161-16.019c-0.776-5.108-2.053-10.215-3.831-15.323c-1.781-5.107-4.527-9.17-8.242-12.188
			s-8.206-4.527-13.465-4.527c-9.286,0-16.251,3.638-20.894,10.911c-4.643,7.277-6.965,15.867-6.965,25.77
			c0,8.67,1.354,16.795,4.063,24.377c2.706,7.585,6.809,14.667,12.304,21.243c5.492,6.58,10.563,12.036,15.206,16.367
			c4.643,4.334,10.831,9.635,18.573,15.903c7.738,6.268,13.233,10.875,16.483,13.813c11.917,10.527,21.975,20.394,30.181,29.6
			c8.202,9.211,15.939,19.617,23.216,31.225c7.274,11.608,12.729,24.145,16.367,37.61c3.635,13.465,5.456,28.015,5.456,43.646
			c0,29.252-10.447,53.204-31.341,71.853c-20.894,18.653-46.28,27.975-76.148,27.975c-19.349,0-36.529-3.562-51.539-10.679
			c-15.014-7.117-27.127-16.792-36.333-29.02c-9.21-12.224-16.291-25.77-21.243-40.628
			C864.645,630.011,861.784,614.072,861.011,597.044z"/>
		<path class="st13" d="M1098.472,716.606V298.72h84.506v171.333h60.594V298.72h84.97v417.886h-84.97V530.183h-60.594v186.424
			H1098.472z"/>
	</g>
	<g class="st0">
		<path class="st9" d="M740.094,698.944c0.112-0.78,0.167-1.561,0.167-2.342c0-6.466-4.125-11.762-10.703-11.762
			c-5.296,0-13.1,4.292-13.1,11.762c0,4.739,4.07,3.401,4.07,4.851c0,0.557-0.781,1.171-3.01,1.171
			c-3.011,0-5.854-2.063-5.854-6.021c0-8.194,9.365-13.602,18.452-13.602c8.808,0,15.498,5.742,15.498,14.383
			c0,0.836-0.055,1.672-0.167,2.564c-2.007,13.881-13.268,23.358-24.083,23.358c-7.359,0-10.703-2.843-10.703-5.966
			c0-3.958,5.017-5.741,8.808-5.909l7.191-20.738c0.557-1.672,2.508-2.843,3.791-2.843c0.725,0,1.171,0.335,1.171,1.059
			c0,0.223,0,0.446-0.112,0.724l-7.749,22.41c2.229,0.836,3.066,2.453,3.066,3.735c0,1.282-0.836,2.174-1.729,2.174
			c-0.724,0-0.892-0.558-0.892-0.948c0-0.781-0.445-1.394-1.393-2.174l-0.223,0.669c-0.557,1.728-2.62,2.843-3.846,2.843
			c-0.669,0-1.171-0.335-1.171-1.004c0-0.222,0.056-0.501,0.167-0.78l1.059-3.066c-1.282,0.111-3.624,1.059-3.624,3.289
			c0,2.509,2.397,4.181,8.083,4.181C731.286,720.963,738.254,711.71,740.094,698.944z"/>
		<path class="st9" d="M749.625,714.943c-0.112,0.391-0.223,0.836-0.223,1.115c0,0.445,0.167,0.724,0.558,0.724
			c0.836,0,3.01-1.449,5.686-4.571c0.335-0.391,0.669-0.445,0.948-0.445c0.39,0,0.669,0.167,0.669,0.557
			c0,0.334-0.223,0.892-0.836,1.561c-3.066,3.623-6.132,5.463-8.083,5.463c-2.062,0-3.01-1.227-3.01-3.122
			c0-0.613,0.112-1.337,0.334-2.062c0.836-2.899,2.23-5.575,2.843-6.858c0.167-0.39,0.279-0.613,0.279-0.78
			c0-0.167-0.112-0.222-0.279-0.222c-0.167,0-0.334,0.056-0.502,0.056c-0.39,0-0.78-0.167-0.78-0.558
			c0-1.115,2.955-3.177,5.798-3.177c0.78,0,1.115,0.334,1.115,0.836c0,0.725-0.613,1.896-1.227,3.233
			C751.855,708.978,750.517,711.932,749.625,714.943z M756.259,696.268c0,1.505-1.561,3.177-3.401,3.177
			c-1.282,0-2.285-0.892-2.285-2.062c0-1.617,1.728-3.178,3.456-3.178C755.255,694.205,756.259,694.93,756.259,696.268z"/>
		<path class="st9" d="M765.177,723.194c-0.725,2.898-1.394,5.741-1.896,8.417c-1.059,5.575-4.46,8.697-7.47,8.697
			c-3.067,0-4.293-2.955-4.293-5.965c0-6.522,5.407-10.592,10.09-12.32l1.115-4.348c-1.171,1.06-2.564,1.673-3.902,1.673
			c-2.564,0-4.738-2.175-4.738-5.073c0-5.018,5.24-11.651,11.818-11.651c2.732,0,4.962,1.059,4.962,3.289
			c0,2.843-2.509,3.4-3.401,3.4c-0.781,0-2.007-0.223-2.007-0.948c0-0.725,1.784-0.334,1.784-2.062c0-1.115-1.115-1.562-2.286-1.562
			c-3.791,0-6.912,5.296-6.912,9.031c0,1.561,0.613,3.122,2.062,3.122c1.226,0,3.01-1.672,4.07-4.126
			c0.558-1.672,2.341-2.787,3.512-2.787c0.557,0,1.004,0.278,1.004,0.947c0,0.223-0.056,0.502-0.167,0.781
			c-0.892,2.564-1.84,5.909-2.788,9.309c0,0,0.558-0.056,1.004-0.056c11.428,0,19.233,3.234,28.208,3.234
			c2.564,0,5.017-1.282,6.243-2.899c0.391-0.446,0.725-0.669,1.059-0.669c0.446,0,0.725,0.334,0.725,0.836
			c0,1.115-0.892,2.954-2.118,4.069c-1.784,1.617-4.85,2.119-7.359,2.119c-9.421,0-19.01-4.516-27.261-4.516
			C765.902,723.138,765.568,723.138,765.177,723.194z M760.996,724.81c-3.401,2.118-5.686,6.132-5.686,9.867
			c0,2.397,1.003,3.289,1.84,3.289c0.892,0,1.449-1.337,2.007-4.069C759.714,730.942,760.327,727.821,760.996,724.81z"/>
		<path class="st9" d="M800.687,696.212c0,0.669-1.171,1.728-2.397,1.728h-6.244c-1.896,5.296-4.516,10.648-7.024,13.992
			c0.167,3.29,0.836,4.46,1.728,4.46c1.338,0,3.178-1.784,5.241-4.181c0.223-0.279,0.613-0.445,0.948-0.445
			c0.334,0,0.613,0.167,0.613,0.557c0,0.39-0.223,0.892-0.78,1.561c-3.345,3.958-5.854,5.463-7.749,5.463
			c-2.118,0-3.345-2.063-3.735-4.739c-2.843,3.178-5.686,4.739-7.47,4.739c-2.063,0-3.011-1.227-3.011-3.122
			c0-0.613,0.112-1.337,0.335-2.062c1.059-3.624,3.122-7.024,3.122-7.582c0-0.167-0.111-0.278-0.279-0.278
			c-0.167,0-0.335,0.112-0.614,0.112c-0.279,0-0.669-0.167-0.669-0.614c0-0.892,2.732-3.177,5.798-3.177
			c0.78,0,1.059,0.334,1.059,0.836c0,0.613-0.502,1.784-1.171,3.233c-1.059,2.286-2.397,5.296-3.289,8.251
			c-0.112,0.445-0.167,0.78-0.167,1.115c0,0.39,0.112,0.724,0.502,0.724c0.836,0,3.01-1.449,5.686-4.571
			c0-4.739,1.115-9.756,2.732-14.271h-0.669c-0.613,0-0.892-0.223-0.892-0.557c0-0.726,1.171-1.728,2.453-1.728
			c2.899-7.247,6.857-12.655,8.808-12.655c0.781,0,1.282,0.836,1.282,2.676c0,2.62-0.724,6.244-1.951,9.979h6.912
			C800.408,695.655,800.687,695.877,800.687,696.212z M781.733,696.268c0,1.505-1.561,3.177-3.401,3.177
			c-1.282,0-2.286-0.892-2.286-2.062c0-1.617,1.673-3.178,3.457-3.178C780.674,694.205,781.733,694.985,781.733,696.268z
			 M785.022,708.923c1.84-3.29,3.233-7.415,4.181-10.982h-2.398c-0.613,2.175-1.059,4.516-1.393,6.69
			C785.189,706.191,785.078,707.696,785.022,708.923z M790.429,689.076c-0.613,0-1.84,2.843-2.954,6.578h2.286
			c0.669-2.843,1.003-4.906,1.003-5.296C790.764,689.466,790.652,689.076,790.429,689.076z"/>
		<path class="st9" d="M802.246,719.347c-1.672,0-2.508-0.892-2.676-2.23c-1.282,1.449-2.843,2.23-4.404,2.23
			c-2.564,0-4.739-2.175-4.739-5.073c0-5.074,5.185-11.651,11.763-11.651c2.788,0,4.962,1.114,4.962,3.345
			c0,2.787-2.453,3.345-3.346,3.345c-0.78,0-2.006-0.223-2.006-0.948c0-0.781,1.728-0.334,1.728-2.118
			c0-1.115-1.115-1.506-2.23-1.506c-4.014,0-6.913,5.575-6.913,9.031c0,1.561,0.613,3.122,2.063,3.122
			c1.17,0,3.066-1.672,4.014-4.126c0.613-1.672,2.341-2.787,3.512-2.787c0.613,0,1.004,0.278,1.004,0.891
			c0,0.223-0.056,0.502-0.167,0.837c-0.223,0.724-1.394,4.069-1.394,4.571c0,0.279,0.112,0.502,0.446,0.502
			c0.836,0,3.011-1.449,5.687-4.571c0.222-0.279,0.613-0.445,0.948-0.445s0.613,0.167,0.613,0.557c0,0.39-0.222,0.892-0.78,1.561
			C807.264,717.507,804.197,719.347,802.246,719.347z"/>
		<path class="st9" d="M813.059,711.932c0.167,3.29,0.837,4.46,1.672,4.46c1.283,0,3.178-1.784,5.241-4.181
			c0.279-0.279,0.613-0.445,0.948-0.445c0.391,0,0.669,0.167,0.669,0.613c0,0.334-0.278,0.836-0.836,1.505
			c-3.345,3.958-5.798,5.463-7.694,5.463c-2.731,0-3.958-3.289-3.958-7.024c0-13.602,9.143-29.323,12.487-29.323
			c0.78,0,1.282,0.836,1.282,2.676C822.871,692.477,817.743,705.633,813.059,711.932z M813.059,708.867
			c3.903-7.024,5.742-17.617,5.742-18.508c0-0.893-0.112-1.282-0.335-1.282c-1.058,0-3.902,8.529-5.017,15.554
			C813.226,706.135,813.059,707.64,813.059,708.867z"/>
		<path class="st9" d="M840.318,711.487c-0.334,0-0.612,0-0.947-0.056c-2.453,3.624-5.128,6.076-7.136,7.247
			c-0.837,0.501-1.616,0.669-2.174,0.669c-0.446,0-0.948-0.112-1.17-0.501c-0.502-0.837-0.725-1.784-0.948-3.178
			c-1.115,1.45-2.062,2.453-2.954,3.011c-0.78,0.501-1.505,0.669-2.286,0.669c-0.557,0-1.282-0.112-1.505-0.501
			c-0.836-1.283-1.282-4.516-1.282-7.75c0-2.341,0.167-4.237,0.613-5.63c0.613-1.784,2.452-2.843,3.512-2.843
			c0.613,0,1.059,0.334,1.059,1.003c0,0.223-0.056,0.502-0.167,0.781c-0.836,2.453-1.282,4.738-1.282,7.024
			c0,0.948,0.223,3.177,0.558,4.404c0.055,0.279,0.222,0.446,0.334,0.446c0.056,0,0.167-0.056,0.335-0.222
			c0.614-0.67,1.895-2.342,2.731-4.404c0-0.223,0-0.502,0-0.725c0-2.285,0.223-4.237,0.613-5.463
			c0.502-1.561,2.342-2.843,3.512-2.843c0.614,0,1.06,0.334,1.06,1.003c0,0.223-0.056,0.502-0.167,0.781
			c-0.837,2.453-1.282,4.738-1.282,7.024c0,0.948,0.278,3.4,0.557,4.404c0.056,0.279,0.223,0.446,0.335,0.446
			c0.056,0,0.223-0.056,0.391-0.222c0.891-0.78,2.954-2.899,4.515-5.463c-1.673-1.059-2.62-3.011-2.62-5.408
			c0-4.014,2.397-6.076,4.739-6.076c1.84,0,3.512,1.338,3.512,4.013c0,1.672-0.67,3.568-1.616,5.408c0,0,0.279,0.056,0.613,0.056
			c1.45,0,2.62-0.78,3.122-1.393c0.445-0.502,0.892-0.836,1.226-0.836c0.279,0,0.391,0.222,0.391,0.501
			c0,0.167-0.056,0.445-0.223,0.724C844.946,709.982,842.381,711.487,840.318,711.487z M836.918,703.124
			c0,1.561,0.781,3.178,1.784,4.237c0.391-1.058,0.614-2.118,0.614-3.177c0-2.007-0.781-2.899-1.393-2.899
			C837.197,701.285,836.918,702.288,836.918,703.124z"/>
		<path class="st9" d="M866.797,706.191c1.45,0.278,3.01,0.223,4.181,0.278c0.892,0.056,1.45,0.781,1.45,1.617
			c0,0.39-0.167,0.836-0.502,1.114c-0.78,0.781-3.958,3.791-3.958,6.133c0,0.891,0.39,1.282,1.003,1.282
			c1.393,0,4.013-1.784,6.244-4.404c0.278-0.279,0.669-0.445,0.948-0.445c0.39,0,0.669,0.167,0.669,0.557
			c0,0.334-0.223,0.892-0.836,1.561c-3.456,4.07-4.251,6.125-8.251,5.463c-2.31-0.382-3.624-1.896-3.624-3.568
			c0-1.449,0.78-3.289,3.178-5.407c-0.948-0.112-1.952-0.335-2.843-0.669c-2.509,2.954-5.91,5.184-8.696,5.24l-0.335,0.445
			c-2.23,2.62-5.184,3.958-7.749,3.958c-3.401,0-5.297-2.509-5.297-5.686c0-2.285,0.948-4.961,2.844-7.136
			c0.613-0.724,1.727-1.84,2.507-2.285c0.223-0.112,0.391-0.223,0.558-0.223c0.446,0,0.781,0.446,0.781,0.948
			c0,0.167-0.056,0.391-0.223,0.557c-1.282,1.394-2.453,3.791-2.453,6.411c0,2.843,1.337,4.962,3.345,4.962
			c1.227,0,2.62-0.892,3.568-2.23c-2.676-0.78-4.683-2.843-4.683-5.797c0-3.178,1.839-6.244,4.962-6.244
			c2.62,0,4.683,2.676,4.683,5.797c0,1.171-0.223,2.453-0.781,3.679c1.84-0.223,3.846-1.449,5.352-3.121
			c-1.728-1.06-2.509-2.286-2.509-4.014c0-3.456,3.011-5.853,5.24-5.853c1.562,0,2.454,1.17,2.454,2.509
			C868.024,703.124,867.578,704.63,866.797,706.191z M850.742,707.64c0,2.007,1.672,3.456,3.791,4.126
			c0.112-0.725,0.223-1.394,0.223-2.063c0-2.119-0.67-4.348-2.175-4.348C851.411,705.355,850.742,706.302,850.742,707.64z
			 M865.013,705.41c0.335-0.892,0.502-1.84,0.502-2.787c0-1.059-0.335-1.45-0.67-1.45c-0.501,0-1.17,0.78-1.17,1.728
			C863.676,703.793,864.233,704.741,865.013,705.41z"/>
		<path class="st9" d="M889.428,716.448c0.335,0,0.558,0.167,0.558,0.558c0,0.112,0,0.278-0.055,0.39
			c-0.893,2.342-3.958,3.178-5.91,3.178c-2.62,0-5.017-1.506-5.965-3.68c-0.391-0.892-0.836-1.895-1.227-3.01
			c0,0-4.704,4.517-5.185,4.791c-0.845,0.482-1.783,0.672-1.783,0.672s-1.171-0.223-1.171-0.613c0-0.223,0.112-0.446,0.391-0.725
			l6.912-6.689c-0.39-1.171-0.948-3.345-1.227-4.46c-0.055-0.279-0.278-0.445-0.501-0.445c-0.445,0-0.501,0.445-1.115,0.445
			c-0.334,0-0.725-0.223-0.725-0.669c0-1.283,2.676-3.568,4.237-3.568c0.725,0,1.227,0.501,1.45,1.449
			c0.278,1.115,0.613,2.564,1.115,4.126l5.017-4.85c0.501-0.501,1.282-0.724,2.007-0.724c0.78,0,1.505,0.278,1.505,0.78
			c0,0.167-0.112,0.39-0.335,0.613l-7.358,6.857c0.669,2.007,1.226,3.513,1.673,4.739c0.78,2.063,2.118,2.899,3.79,2.899
			c1.171,0,2.174-0.557,3.01-1.561C888.815,716.615,889.149,716.448,889.428,716.448z"/>
	</g>
	<g>
		<path d="M1333.046,309.53v-8.953h-1.547v-1.594h5.197v1.594h-1.518v8.953H1333.046z"/>
		<path d="M1337.405,309.53v-10.547h2.555l1.125,7.031l1.213-7.031h2.467v10.547h-1.57l-0.047-7.418
			c-0.117,0.762-0.322,1.998-0.615,3.709s-0.498,2.947-0.615,3.709h-1.594l-1.295-7.465l-0.047,7.465H1337.405z"/>
	</g>
</g>
</svg>
